<svg width="328" height="381" viewBox="0 0 328 381" fill="none" xmlns="http://www.w3.org/2000/svg">
<path d="M204.622 341.657L231.619 342.414L241.469 342.702C253.046 342.945 264.624 343.081 276.201 343.051C281.339 343.051 286.506 343.051 291.613 342.937C294.894 342.877 298.174 342.801 301.463 342.604C303.107 342.498 304.751 342.369 306.395 342.157C308.062 341.982 309.709 341.662 311.32 341.202C311.578 341.111 311.798 341.028 311.972 340.952C312.122 340.878 312.267 340.791 312.404 340.695C312.616 340.535 312.684 340.422 312.624 340.346C312.563 340.27 311.957 340.24 311.108 340.24C309.373 340.285 306.259 340.24 302.531 340.528C295.917 340.99 289.241 341.089 282.566 341.187C275.891 341.286 269.178 341.278 262.442 341.293C254.387 341.293 246.007 341.02 237.764 340.816C228.712 340.588 219.65 340.336 210.578 340.058L193.848 339.497C185.407 339.187 176.921 338.891 168.541 338.527L149.197 337.565L144.962 337.376C139.658 337.209 137.93 337.376 136.794 337.861C136.529 337.954 136.275 338.076 136.036 338.224C135.566 338.618 137.673 338.8 141.552 338.982C153.039 339.573 165.177 340.172 177.368 340.657L204.607 341.71L204.622 341.657Z" fill="#313631"/>
<g opacity="0.3">
<path d="M247.902 232.898C251.493 232.994 255.084 233.072 258.676 233.133C259.987 233.133 261.29 233.216 262.601 233.223C267.223 233.223 271.837 233.223 276.444 233.178C278.49 233.178 280.551 233.178 282.574 233.246C285.188 233.299 287.802 233.436 290.408 233.292C292.037 233.193 289.991 231.617 286.983 231.572C281.679 231.496 276.33 231.572 270.966 231.693C267.761 231.784 264.419 231.655 261.116 231.602C257.509 231.549 253.902 231.481 250.288 231.375L243.628 231.147C240.272 231.011 236.892 230.875 233.558 230.655C230.967 230.481 228.436 230.208 225.875 229.965L224.193 229.799C222.087 229.632 221.413 229.7 220.928 230.102C220.812 230.181 220.705 230.272 220.609 230.375C220.39 230.693 221.231 231.026 222.769 231.223C227.315 231.829 232.164 232.17 237.021 232.451C240.628 232.655 244.257 232.799 247.879 232.943L247.902 232.898Z" fill="#313631"/>
</g>
<g opacity="0.3">
<path d="M157.744 228.336C155.895 228.336 154.046 228.336 152.205 228.23C151.531 228.23 150.871 228.094 150.197 228.048C147.839 227.885 145.496 227.546 143.188 227.033C142.676 226.924 142.17 226.785 141.673 226.616C141.181 226.45 140.673 226.306 140.196 226.116L138.347 225.359C137.749 225.063 137.131 224.809 136.498 224.601C135.687 224.343 135.945 226.184 137.43 226.874C140.053 228.009 142.832 228.745 145.674 229.056C147.356 229.261 149.091 229.556 150.818 229.708C151.766 229.791 152.713 229.821 153.66 229.874C154.607 229.927 155.546 229.927 156.494 229.927C157.66 229.927 158.82 229.927 159.979 229.927C161.737 229.927 163.495 229.837 165.237 229.829C166.586 229.829 167.912 229.905 169.246 229.95H170.124C171.223 229.95 171.564 229.852 171.799 229.42C171.858 229.326 171.909 229.227 171.95 229.124C172.057 228.791 171.602 228.518 170.799 228.427C168.325 228.214 165.84 228.145 163.358 228.223C161.494 228.223 159.615 228.298 157.751 228.283L157.744 228.336Z" fill="#313631"/>
</g>
<path d="M38.286 300.794C35.5886 304.757 28.8148 315.585 25.1779 318.721C17.9192 324.98 0.931782 314.622 1.82586 311.145C2.92451 306.826 18.3966 314.175 21.1394 314.175C23.5489 314.175 32.9746 297.976 34.1263 296.968C35.2931 297.324 37.6874 299.908 38.286 300.794Z" fill="#313631"/>
<path d="M11.4712 309.887C9.82128 309.393 8.14064 309.008 6.44016 308.735C5.51523 308.592 4.5761 308.564 3.64427 308.652C3.07294 308.711 2.51917 308.884 2.01524 309.159C1.52735 309.415 1.13783 309.825 0.907536 310.325C0.677246 310.826 0.619139 311.388 0.742299 311.925C0.768475 312.078 0.811688 312.228 0.871117 312.372C0.924155 312.508 0.977195 312.652 1.03781 312.774C1.27352 313.209 1.55549 313.618 1.87884 313.993C2.46246 314.666 3.11233 315.277 3.81855 315.819C5.29738 316.997 6.89759 318.013 8.592 318.85C11.5611 320.358 14.7968 321.269 18.1162 321.532C19.8377 321.635 21.5617 321.377 23.1776 320.775C23.9998 320.451 24.7666 320.001 25.4507 319.441C26.0906 318.896 26.686 318.301 27.2312 317.661C29.1103 315.456 30.7924 313.115 32.4366 310.841C34.543 307.886 36.6418 304.909 38.4527 301.795C39.5968 299.855 36.369 301.135 34.0732 304.606C32.0199 307.636 29.9892 310.713 27.8298 313.637C26.8066 315.076 25.6716 316.431 24.4354 317.691C23.8526 318.216 23.1869 318.641 22.4653 318.949C21.6965 319.251 20.8916 319.452 20.071 319.547C17.9375 319.727 15.7899 319.469 13.7595 318.79C11.6435 318.116 9.61011 317.206 7.69793 316.077C6.5515 315.421 5.46839 314.66 4.46257 313.804C3.98437 313.396 3.54782 312.942 3.15934 312.448C2.84802 312.129 2.66006 311.71 2.62897 311.266C2.67349 311.131 2.75196 311.01 2.8568 310.915C2.96164 310.819 3.08931 310.752 3.22753 310.72C3.67288 310.579 4.14011 310.52 4.60653 310.546C5.67652 310.578 6.74034 310.72 7.78127 310.97C10.7509 311.689 13.6819 312.559 16.5629 313.577C17.2676 313.804 17.9798 314.039 18.6996 314.251C19.0633 314.357 19.4573 314.456 19.8058 314.547L20.3817 314.668L20.6924 314.721C20.806 314.721 20.9575 314.721 21.0863 314.721C21.229 314.703 21.3706 314.678 21.5106 314.645C21.6453 314.595 21.7769 314.537 21.9047 314.471C22.1139 314.35 22.3117 314.211 22.4957 314.054C22.8195 313.775 23.1257 313.477 23.4125 313.16C23.9656 312.546 24.4732 311.917 24.9657 311.281C25.9431 310 26.8675 308.697 27.7692 307.394C29.8301 304.431 31.8304 301.499 33.8307 298.627C33.9112 298.508 33.9998 298.394 34.0959 298.286C34.1553 298.22 34.2185 298.156 34.2854 298.097C34.3694 298.135 34.4483 298.183 34.5202 298.241C34.5884 298.279 35.2097 298.809 35.528 299.097C35.8462 299.385 36.1872 299.688 36.4448 299.893C36.8093 300.22 37.2536 300.444 37.7328 300.544C37.9122 300.592 38.0944 300.627 38.2784 300.65C38.7936 300.65 38.3542 299.362 36.8236 297.733C36.6721 297.567 36.513 297.408 36.3463 297.241L36.0962 297.006L35.7704 296.71C35.1754 296.242 34.514 295.864 33.808 295.589C33.3707 295.989 32.9677 296.425 32.6033 296.892L31.8456 297.93L30.6181 299.665C29.8251 300.832 29.0244 302.009 28.2162 303.196C26.6099 305.553 24.9885 307.955 23.2609 310.19C22.8063 310.773 22.3366 311.342 21.8592 311.849C21.6424 312.09 21.4095 312.315 21.1621 312.524C21.1168 312.565 21.0687 312.603 21.0182 312.637L20.9348 312.698H20.8818C20.7984 312.698 20.7302 312.698 20.6393 312.66L20.0862 312.531C19.6998 312.433 19.3285 312.311 18.8966 312.19C18.0935 311.948 17.2676 311.675 16.4493 311.432C14.7975 310.887 13.1382 310.326 11.4409 309.826L11.4712 309.887Z" fill="#313631"/>
<path d="M47.348 305.644C44.4309 308.493 39.9605 328.481 32.4366 331.239C25.1628 333.89 3.4928 332.042 2.81846 329.238C1.34853 323.177 16.7827 323.616 20.306 323.616C24.1323 323.616 27.6026 324.215 30.3909 321.085C35.4674 315.372 36.854 308.841 40.2409 302.317C42.0669 303.068 45.575 306.007 47.348 305.644Z" fill="#313631"/>
<path d="M13.2822 322.495C10.975 322.629 8.68887 323.01 6.46292 323.631C5.24375 323.968 4.10308 324.542 3.10635 325.321C2.51932 325.794 2.07153 326.417 1.81068 327.124C1.73827 327.308 1.68496 327.498 1.65157 327.693C1.60934 327.881 1.58901 328.075 1.59097 328.268C1.57956 328.46 1.57956 328.652 1.59097 328.844L1.70462 329.481C1.95581 330.145 2.45207 330.687 3.09118 330.996C3.31591 331.12 3.54881 331.229 3.78827 331.322C4.02568 331.418 4.25298 331.501 4.47019 331.572C5.33903 331.856 6.22471 332.087 7.12211 332.261C9.37521 332.707 11.652 333.023 13.9413 333.209C17.9387 333.512 21.9534 333.512 25.9508 333.209C27.9882 333.068 30.0063 332.723 31.9744 332.178L32.7321 331.92L33.4898 331.572L34.1945 331.148L34.8461 330.663C35.6457 329.985 36.3697 329.223 37.0055 328.39C39.0794 325.478 40.8132 322.338 42.173 319.032C43.0822 316.964 43.946 314.888 44.7794 312.804C45.6129 310.72 46.3933 308.606 47.3556 306.742C47.6662 306.204 47.7269 305.985 47.5753 305.826C47.4238 305.666 46.9995 305.735 46.4463 306.136C45.3325 306.894 43.9763 308.818 43.014 311.213C41.447 315.449 39.6511 319.597 37.6344 323.639C36.6732 325.561 35.4094 327.316 33.8914 328.837C33.5314 329.169 33.1378 329.464 32.717 329.716C32.5178 329.837 32.3102 329.943 32.0956 330.034C31.8835 330.132 31.6183 330.208 31.3834 330.299C30.3376 330.63 29.2689 330.883 28.1859 331.057C25.4611 331.443 22.7086 331.601 19.9574 331.526C17.1615 331.473 14.3429 331.276 11.5849 330.958C10.0695 330.776 8.55416 330.549 7.03878 330.2C6.31034 330.047 5.59175 329.849 4.88691 329.609C4.57125 329.491 4.26262 329.354 3.96253 329.2C3.87546 329.145 3.79196 329.084 3.7125 329.018C3.65365 328.967 3.61364 328.898 3.59885 328.821C3.57322 328.707 3.558 328.59 3.55339 328.473C3.53825 328.34 3.53825 328.205 3.55339 328.071C3.57004 327.941 3.60577 327.813 3.65945 327.693C3.70478 327.567 3.7659 327.447 3.84132 327.336C4.2141 326.823 4.71234 326.413 5.28849 326.147C6.60995 325.528 8.01334 325.102 9.4558 324.881C13.1998 324.357 16.9821 324.157 20.7606 324.283C22.185 324.283 23.6474 324.366 25.1552 324.23C26.7161 324.131 28.2203 323.607 29.5043 322.714C30.1215 322.252 30.6767 321.712 31.1561 321.108C31.641 320.547 32.0881 319.964 32.5275 319.373C33.3758 318.176 34.1501 316.929 34.8461 315.638C35.922 313.645 36.8388 311.614 37.7253 309.576L39.074 306.545L39.7635 305.068L40.1272 304.31L40.309 303.946L40.3848 303.802L40.5212 303.575C40.5212 303.575 40.5591 303.484 40.5894 303.484L40.7106 303.552L41.3319 303.946C42.4128 304.695 43.5711 305.325 44.787 305.826C45.0904 305.967 45.4191 306.046 45.7537 306.058C46.0882 306.069 46.4217 306.014 46.7343 305.894C46.9392 305.82 47.1201 305.692 47.2571 305.522C47.3253 305.409 47.2571 305.318 47.151 305.234C46.9857 305.13 46.8136 305.036 46.6358 304.954C45.8181 304.516 45.0239 304.036 44.2566 303.515L43.0443 302.696L42.423 302.28L42.0972 302.067C41.9608 301.976 41.7335 301.848 41.5517 301.742C41.1728 301.514 40.794 301.325 40.3848 301.128L39.7787 300.84C39.7787 300.84 39.7256 300.794 39.7105 300.84L39.6726 300.908L39.5968 301.052L39.4377 301.34L38.7936 302.514C38.6876 302.704 38.5663 302.916 38.4754 303.098L38.3011 303.446C37.3768 305.28 36.5585 307.174 35.7477 309.053C34.1263 312.796 32.429 316.471 29.868 319.494C29.4574 320.031 28.9872 320.519 28.4663 320.949C27.9727 321.33 27.4198 321.627 26.8297 321.828C25.4828 322.207 24.0819 322.358 22.6851 322.275H20.3363H18.0026C16.4266 322.275 14.8506 322.328 13.2594 322.442L13.2822 322.495Z" fill="#313631"/>
<path d="M252.167 125.078C250.15 124.35 248.445 122.947 247.341 121.108C246.272 119.187 245.692 117.032 245.651 114.834C245.603 113.184 245.702 111.534 245.947 109.901C246.773 104.075 248.773 98.3845 251.114 92.8988C252.16 90.4666 253.342 88.0647 254.569 85.7386C256.153 82.7079 257.911 79.8438 259.479 76.8282C260.457 74.9415 257.736 76.4645 255.782 79.8589C252.265 85.9315 249.359 92.3375 247.106 98.9831C245.81 102.999 244.522 107.242 244.143 111.621C243.908 114.052 244.095 116.506 244.697 118.873C244.871 119.467 245.078 120.051 245.318 120.623C245.56 121.191 245.909 121.721 246.197 122.275C246.485 122.828 246.954 123.282 247.364 123.744C247.805 124.184 248.274 124.597 248.765 124.98C249.377 125.433 250.035 125.822 250.728 126.139L251.766 126.616L252.864 126.957C254.354 127.32 255.904 127.361 257.411 127.078C259.627 126.632 261.747 125.801 263.677 124.623C265.578 123.488 267.399 122.223 269.125 120.835C271.799 118.736 274.33 116.554 276.898 114.455C277.467 113.993 278.035 113.561 278.618 113.129C280.785 111.5 281.414 111.258 281.854 110.727C281.96 110.621 282.127 110.508 282.21 110.402C282.293 110.295 282.134 110.061 281.52 110.045C280.672 110.12 279.857 110.406 279.149 110.879C277.823 111.695 276.557 112.604 275.36 113.599C274.163 114.576 272.989 115.577 271.799 116.577C269.466 118.615 267.012 120.51 264.45 122.252C262.596 123.518 260.566 124.506 258.426 125.184C257.389 125.473 256.32 125.626 255.244 125.639C254.205 125.602 253.18 125.389 252.213 125.01L252.167 125.078Z" fill="#313631"/>
<path d="M288.165 108.454C287.036 109.024 285.76 109.241 284.506 109.076C283.119 108.932 281.74 108.318 280.391 108.947C279.884 109.189 277.967 108.394 278.702 108.053C281.27 106.848 283.915 108.863 286.476 107.553C286.983 107.303 288.9 108.083 288.165 108.454Z" fill="#313631"/>
<path d="M285.142 99.7559C285.863 99.3297 286.649 99.0251 287.468 98.8543C287.85 98.8427 288.23 98.9085 288.586 99.0479C288.941 99.1872 289.265 99.3972 289.537 99.665C290.431 100.423 289.029 100.976 288.385 100.423C288.226 100.286 288.044 100.173 287.893 100.051C288.052 100.18 288.105 100.051 287.893 100.135C287.309 100.37 286.748 100.642 286.173 100.892C285.476 101.211 284.142 100.211 285.15 99.7484L285.142 99.7559Z" fill="#313631"/>
<path d="M250.766 71.2667C250.478 74.9642 255.13 76.616 258.403 77.5252C260.447 78.0719 262.569 78.2615 264.677 78.0859C273.686 77.4267 287.089 78.7072 287.044 90.4515C287.044 92.8231 287.044 97.5359 287.976 98.8846C288.453 99.6423 288.544 99.7408 289.605 99.3695C291.067 83.4049 292.908 61.5455 292.939 61.2349C289.4 56.3023 252.72 46.3007 250.766 71.2667Z" fill="#313631"/>
<path d="M291.378 66.0765L289.597 88.4891C289.37 91.2167 289.138 93.9394 288.9 96.657L288.696 99.2862L289.302 98.5285L289.097 98.6042H288.984C288.908 98.6042 288.847 98.5588 288.802 98.4982C288.601 98.1812 288.462 97.8289 288.393 97.4601C288.172 96.4375 288.035 95.3985 287.984 94.3536C287.915 93.2852 287.877 92.2017 287.862 91.1182C287.862 90.5879 287.862 90.0044 287.817 89.4286C287.769 88.8485 287.689 88.2717 287.574 87.7011C287.121 85.3755 285.915 83.2639 284.142 81.6926C282.38 80.2034 280.31 79.1242 278.08 78.533C275.974 77.9363 273.81 77.5655 271.625 77.4267C269.469 77.2716 267.305 77.2564 265.147 77.3813C262.51 77.6305 259.852 77.3101 257.35 76.4417C256.103 76.0699 254.901 75.5617 253.766 74.9264C252.71 74.3818 251.899 73.4592 251.493 72.3426C251.465 72.1937 251.427 72.0469 251.379 71.9032C251.366 71.7922 251.34 71.683 251.304 71.5774C251.243 71.4107 251.167 71.3273 251.076 71.3273C250.985 71.3273 250.879 71.4258 250.773 71.6228C250.708 71.7446 250.652 71.8712 250.607 72.0017C250.607 72.1456 250.554 72.3275 250.531 72.5321C250.508 73.0336 250.59 73.5345 250.773 74.002C251.025 74.6045 251.387 75.1545 251.842 75.6234C252.946 76.7247 254.293 77.5524 255.774 78.0405C256.466 78.293 257.156 78.5128 257.842 78.6997C258.558 78.911 259.287 79.0755 260.025 79.1922C261.49 79.4202 262.977 79.4863 264.457 79.3892C267.165 79.1543 269.887 79.1543 272.595 79.3892C275.246 79.5848 277.845 80.2332 280.278 81.3061C281.437 81.8493 282.499 82.5788 283.422 83.4656C284.323 84.3552 285.023 85.4273 285.476 86.61C285.872 87.6635 286.097 88.7737 286.142 89.8984C286.142 90.4591 286.142 91.0955 286.142 91.7168C286.142 92.3381 286.142 92.9594 286.195 93.5883C286.237 94.8575 286.359 96.1228 286.559 97.3768C286.627 97.7102 286.695 98.036 286.802 98.3845C286.802 98.5436 286.93 98.7331 286.991 98.9073C287.085 99.1055 287.192 99.2978 287.309 99.4832C287.428 99.7054 287.591 99.9012 287.787 100.059C287.984 100.216 288.21 100.332 288.453 100.4C288.703 100.45 288.961 100.45 289.211 100.4C289.336 100.374 289.46 100.341 289.582 100.301L289.855 100.211L290.378 100.036L290.423 99.4832C290.59 97.5662 290.749 95.6417 290.916 93.7323L292.772 71.1303L293.333 64.1823L293.477 62.4472C293.477 62.0153 293.878 60.8939 293.007 60.3711C292.074 59.5575 291.021 58.893 289.885 58.4011C286.62 56.9392 283.183 55.8955 279.656 55.2945C276.162 54.6334 272.602 54.3791 269.049 54.5369C266.295 54.6536 263.573 55.1639 260.964 56.0522C260.314 56.2868 259.677 56.5548 259.055 56.8554C258.426 57.1585 257.827 57.5222 257.229 57.8707C256.051 58.6426 254.981 59.5675 254.046 60.6211L253.44 61.3258C253.246 61.567 253.066 61.82 252.902 62.0835C252.531 62.5843 252.209 63.1197 251.94 63.6822C251.158 65.1261 250.645 66.6998 250.425 68.3269C250.363 68.7565 250.363 69.1928 250.425 69.6225C250.452 69.9221 250.516 70.2172 250.614 70.5014C250.679 70.7278 250.762 70.9483 250.864 71.1606C251.031 71.3804 251.243 71.0546 251.478 70.2969C251.607 69.918 251.69 69.4255 251.872 68.8497C252.054 68.2738 252.213 67.6146 252.478 66.8948C253.193 64.7238 254.42 62.7566 256.054 61.1591C257.747 59.5722 259.763 58.3702 261.964 57.6358C266.435 56.1204 271.473 55.9841 276.36 56.5599C280.013 56.9905 283.602 57.8528 287.052 59.1285C287.898 59.4439 288.728 59.803 289.537 60.2044C290.292 60.5669 291.001 61.017 291.651 61.5455L291.704 61.591V61.7577L291.583 63.167L291.348 65.9932L291.378 66.0765Z" fill="#313631"/>
<path d="M247.061 177.147C247.689 175.381 248.341 173.616 249.068 171.888C249.326 171.252 249.637 170.638 249.909 170.009C250.849 167.789 251.857 165.592 252.94 163.432C253.41 162.463 253.971 161.546 254.516 160.629C255.276 159.487 255.972 158.303 256.6 157.083C256.789 156.697 256.524 156.59 256.085 156.734C255.462 156.971 254.917 157.375 254.509 157.901C253.683 159.065 252.924 160.274 252.236 161.523C251.538 162.766 250.913 164.049 250.364 165.365C249.69 166.933 248.849 168.509 248.167 170.108C247.409 171.866 246.697 173.633 246.03 175.412C245.621 176.518 245.227 177.624 244.841 178.738C244.257 180.42 243.734 182.132 243.174 183.814C242.757 185.125 242.264 186.39 241.84 187.686C241.749 187.966 241.643 188.247 241.56 188.535C241.257 189.618 241.264 189.99 241.605 190.323C241.675 190.402 241.751 190.475 241.832 190.543C242.113 190.717 242.484 190.338 242.772 189.58C243.643 187.307 244.378 184.905 245.189 182.496C245.78 180.708 246.386 178.912 247.045 177.139L247.061 177.147Z" fill="#313631"/>
<path d="M200.947 250.029C201.193 248.045 201.796 246.123 202.728 244.354C203.069 243.687 203.486 243.058 203.834 242.407C204.486 241.263 205.183 240.134 205.872 238.997C206.562 237.861 207.274 236.724 207.858 235.474C208.363 234.388 208.868 233.307 209.373 232.231L210.32 230.178C210.608 229.488 210.866 228.783 211.116 228.071C211.267 227.632 211.017 227.571 210.593 227.814C209.986 228.183 209.487 228.706 209.146 229.329C207.858 232.178 206.873 234.974 205.274 237.603C204.372 239.224 203.243 240.808 202.296 242.482C201.768 243.408 201.29 244.362 200.864 245.339C200.462 246.337 200.15 247.369 199.932 248.423C199.68 249.7 199.498 250.99 199.387 252.287C199.365 252.502 199.324 252.715 199.265 252.923C199.243 253.062 199.177 253.19 199.076 253.287C199.024 253.328 198.962 253.353 198.897 253.361C198.831 253.369 198.765 253.359 198.705 253.333C198.562 253.281 198.44 253.186 198.356 253.06C197.883 252.284 197.593 251.411 197.507 250.506C197.346 249.084 197.486 247.644 197.917 246.278C198.008 245.983 198.114 245.695 198.227 245.407C198.652 244.346 198.796 244.036 198.636 243.627C198.613 243.533 198.58 243.441 198.538 243.354C198.402 243.104 197.879 243.392 197.401 244.24C196.713 245.524 196.302 246.939 196.197 248.392C196.137 249.15 196.155 249.912 196.25 250.666C196.348 251.443 196.539 252.206 196.818 252.939C196.945 253.25 197.107 253.545 197.303 253.818C197.425 253.993 197.57 254.151 197.735 254.287C197.928 254.456 198.16 254.575 198.409 254.636C198.643 254.723 198.894 254.752 199.141 254.719C199.388 254.686 199.624 254.592 199.826 254.446C200.02 254.292 200.182 254.102 200.303 253.886L200.462 253.53C200.462 253.431 200.515 253.348 200.546 253.257C200.658 252.707 200.734 252.15 200.773 251.59C200.834 251.075 200.902 250.567 200.985 250.075L200.947 250.029Z" fill="#313631"/>
<g opacity="0.3">
<path d="M204.046 244.945C204.698 243.642 205.44 242.361 206.206 241.081C206.486 240.611 206.804 240.171 207.085 239.694L207.842 238.436C208.085 237.997 208.32 237.535 208.524 237.08C208.916 236.167 209.25 235.231 209.524 234.277C209.774 233.443 210.04 232.625 210.328 231.837C210.691 230.814 211.161 229.867 211.449 228.852C211.54 228.533 211.153 228.374 210.691 228.465C210.399 228.516 210.124 228.639 209.891 228.823C209.659 229.007 209.475 229.246 209.358 229.518C208.486 231.7 208.077 233.852 207.403 235.883C207.19 236.493 206.911 237.077 206.569 237.626L205.478 239.368C204.721 240.649 203.902 241.952 203.205 243.301C202.751 244.134 202.334 244.96 201.94 245.839C201.393 247.179 200.982 248.57 200.712 249.991C200.599 250.529 200.485 251.06 200.364 251.597C200.243 252.135 200.144 252.704 200.046 253.166C200.003 253.355 199.945 253.54 199.871 253.719C199.818 253.855 199.765 253.893 199.796 253.924C199.826 253.954 199.894 254.098 199.871 253.977C199.871 253.977 199.773 254.174 199.637 254.333C199.5 254.492 199.477 254.484 199.417 254.56C199.387 254.595 199.364 254.636 199.351 254.681C199.337 254.725 199.332 254.772 199.337 254.818C199.342 254.864 199.357 254.908 199.379 254.949C199.402 254.989 199.433 255.024 199.47 255.053C199.604 255.18 199.778 255.257 199.962 255.272C200.12 255.287 200.279 255.27 200.43 255.221C200.581 255.173 200.721 255.095 200.841 254.992C201.127 254.729 201.341 254.398 201.463 254.03C201.562 253.755 201.64 253.474 201.697 253.189C201.788 252.711 201.879 252.234 201.978 251.757C202.16 250.794 202.349 249.84 202.592 248.915C202.949 247.537 203.481 246.211 204.175 244.968L204.046 244.945Z" fill="#313631"/>
</g>
<path d="M194.863 254.265C194.544 253.09 194.306 251.895 194.151 250.688C194.09 250.249 194.068 249.802 194.03 249.362C193.871 247.938 194.462 246.407 195.098 244.998C195.394 244.368 195.736 243.76 196.121 243.18C196.613 242.422 197.174 241.74 197.636 240.967C197.932 240.49 196.712 240.437 196.083 241.316C194.957 242.856 194.092 244.571 193.522 246.392C193.353 246.963 193.214 247.542 193.105 248.127C193.052 248.437 193.029 248.752 193.037 249.067C193.037 249.37 193.037 249.658 193.098 249.946C193.223 251.22 193.425 252.485 193.704 253.734C193.879 254.507 194.109 255.267 194.393 256.007C194.607 256.612 194.969 257.154 195.447 257.583C195.595 257.703 195.77 257.786 195.957 257.826C196.144 257.865 196.338 257.86 196.522 257.811C196.879 257.711 197.183 257.478 197.371 257.159C197.612 256.722 197.759 256.239 197.803 255.742C197.848 255.276 197.848 254.806 197.803 254.34C197.803 254.136 197.803 253.931 197.742 253.727C197.598 252.969 197.417 252.726 197.106 252.681C197.035 252.674 196.964 252.674 196.894 252.681C196.682 252.726 196.651 253.022 196.719 253.507C196.81 254.249 196.81 255 196.719 255.742C196.696 256.062 196.608 256.374 196.462 256.659C196.432 256.725 196.384 256.781 196.324 256.821C196.264 256.862 196.193 256.884 196.121 256.886C196.007 256.886 195.606 256.485 195.363 255.977C195.127 255.44 194.935 254.885 194.787 254.318L194.863 254.265Z" fill="#313631"/>
<path d="M191.787 251.15C191.525 250.162 191.395 249.143 191.4 248.12C191.4 247.748 191.469 247.362 191.507 247.021C191.604 246.364 191.751 245.716 191.946 245.081L192.476 243.126C192.635 242.551 192.855 241.96 193.052 241.407C193.297 240.728 193.623 240.082 194.022 239.482C194.143 239.323 194.022 239.156 193.704 239.156C193.495 239.176 193.294 239.248 193.122 239.368C192.949 239.487 192.81 239.649 192.719 239.838C192.37 240.569 192.089 241.33 191.878 242.111C191.658 242.869 191.461 243.627 191.287 244.384C191.181 244.854 191.037 245.324 190.9 245.794C190.769 246.291 190.675 246.797 190.62 247.309C190.516 248.408 190.579 249.517 190.809 250.597C190.946 251.257 191.12 251.893 191.31 252.529L191.764 253.954C191.901 254.443 192.065 254.923 192.257 255.394C192.415 255.772 192.63 256.124 192.893 256.439C193.028 256.599 193.175 256.749 193.333 256.886C193.525 257.062 193.77 257.171 194.03 257.197C194.165 257.211 194.302 257.198 194.433 257.158C194.563 257.117 194.684 257.051 194.787 256.962C194.904 256.858 194.997 256.729 195.057 256.585C195.117 256.441 195.144 256.285 195.136 256.128C195.135 256.056 195.114 255.985 195.075 255.923C195.036 255.862 194.981 255.812 194.916 255.78C194.865 255.747 194.808 255.721 194.749 255.704C194.56 255.704 194.484 255.954 194.34 256.204C194.305 256.27 194.249 256.323 194.181 256.356C194.136 256.364 194.09 256.364 194.045 256.356C193.837 256.226 193.656 256.056 193.514 255.856C193.144 255.35 192.886 254.772 192.757 254.158C192.446 253.12 192.098 252.143 191.863 251.128L191.787 251.15Z" fill="#313631"/>
<path d="M199.576 223.063C200.802 221.299 202.2 219.662 203.751 218.176C205.266 216.66 206.941 215.183 208.623 213.766C209.85 212.728 211.138 211.766 212.411 210.735C216.859 207.212 221.451 203.84 226.05 200.506C228.103 199.029 230.194 197.589 232.255 196.142C233.574 195.218 234.907 194.293 236.21 193.316C237.551 192.356 238.79 191.262 239.908 190.05C240.59 189.156 240.097 189.095 239.279 189.436C237.959 189.974 236.718 190.687 235.589 191.558C230.391 195.475 224.981 199.203 219.678 203.264C216.518 205.689 213.139 208.083 209.956 210.629C206.389 213.387 203.073 216.455 200.046 219.797C199.584 220.312 199.159 220.888 198.735 221.449C198.311 222.01 197.977 222.616 197.583 223.207C196.866 224.389 196.169 225.578 195.492 226.775C193.423 230.405 191.461 234.095 189.582 237.792C189.218 238.55 188.824 239.224 188.529 239.997C188.433 240.213 188.364 240.439 188.324 240.672L188.218 241.255L187.998 242.429C187.71 243.998 187.453 245.574 187.301 247.188C187.227 247.903 187.192 248.621 187.195 249.34C187.112 250.405 187.378 251.469 187.953 252.37C188.612 253.128 189.309 252.931 189.582 252.658C189.711 252.556 189.813 252.423 189.877 252.272C189.877 252.173 189.877 252.105 189.749 252.06C189.62 252.014 189.491 251.999 189.377 251.946C189.097 251.794 188.999 251.658 188.839 250.779C188.714 249.431 188.749 248.073 188.946 246.733C189.112 245.324 189.347 243.899 189.597 242.46L189.794 241.369L189.885 240.8L190.006 240.512C190.256 239.906 190.605 239.224 190.923 238.573C191.59 237.254 192.287 235.936 192.984 234.618C195.083 230.723 197.22 226.753 199.576 223.063Z" fill="#313631"/>
<path d="M208.153 183.617C208.622 184.011 209.13 184.356 209.668 184.648C209.759 184.648 209.797 184.716 209.926 184.761C210.041 184.811 210.16 184.849 210.282 184.875C210.513 184.93 210.756 184.906 210.972 184.807C211.076 184.754 211.168 184.68 211.242 184.591C211.316 184.501 211.371 184.396 211.404 184.284C211.466 184.057 211.484 183.821 211.457 183.587C211.408 183.121 211.293 182.664 211.116 182.231C210.783 181.518 210.32 180.873 209.752 180.329C209.216 179.803 208.641 179.32 208.032 178.882C207.501 178.495 206.971 178.124 206.433 177.73C205.767 177.224 205.051 176.787 204.296 176.427C203.827 176.222 203.955 177.306 204.743 177.806C206.158 178.655 207.514 179.597 208.805 180.624C209.557 181.236 210.117 182.052 210.419 182.973C210.49 183.206 210.54 183.444 210.57 183.686C210.57 183.799 210.57 183.936 210.456 183.958C210.343 183.981 209.759 183.686 209.335 183.375C208.78 182.957 208.249 182.51 207.744 182.034C207.364 181.645 206.951 181.29 206.509 180.973C206.069 180.647 205.615 180.352 205.168 180.064L203.114 178.707L202.667 178.412C202.091 178.071 201.91 178.018 201.629 178.162C201.571 178.19 201.515 178.223 201.463 178.26C201.311 178.389 201.463 178.67 201.872 178.958C203.054 179.814 204.372 180.587 205.6 181.435C206.046 181.736 206.464 182.075 206.85 182.45C207.267 182.86 207.706 183.254 208.161 183.632L208.153 183.617Z" fill="#313631"/>
<path d="M203.213 183.276C203.971 183.829 204.728 184.398 205.486 184.943C205.766 185.14 206.047 185.352 206.342 185.542C206.637 185.741 206.968 185.881 207.316 185.952C207.664 186.024 208.024 186.026 208.373 185.959C208.576 185.92 208.766 185.83 208.925 185.697C209.084 185.565 209.207 185.394 209.282 185.201C209.331 185.002 209.331 184.794 209.282 184.595C209.235 184.423 209.174 184.256 209.1 184.095C208.816 183.6 208.47 183.145 208.07 182.738C207.598 182.223 207.045 181.787 206.433 181.45C206.244 181.344 206.175 181.45 206.221 181.723C206.294 182.044 206.451 182.339 206.676 182.579C206.897 182.83 207.132 183.067 207.38 183.292C207.611 183.511 207.826 183.747 208.024 183.996C208.208 184.204 208.354 184.443 208.456 184.701C208.509 184.921 208.524 184.996 208.388 185.118C208.251 185.2 208.098 185.25 207.94 185.266C207.781 185.282 207.621 185.262 207.471 185.208C207.103 185.096 206.759 184.916 206.456 184.678C205.698 184.163 204.94 183.595 204.183 183.026L202.773 181.981C202.044 181.457 201.285 180.976 200.5 180.541C199.896 180.192 199.263 179.898 198.606 179.662C198.459 179.614 198.31 179.573 198.159 179.541C197.583 179.405 197.401 179.495 197.25 179.692C197.218 179.738 197.19 179.786 197.167 179.836C197.113 180.003 197.326 180.17 197.689 180.246C198.819 180.58 199.893 181.078 200.879 181.723C201.637 182.208 202.395 182.754 203.152 183.322L203.213 183.276Z" fill="#313631"/>
<path d="M200.447 184.868C201.167 185.315 201.879 185.769 202.637 186.209C202.91 186.368 203.167 186.534 203.455 186.686C203.973 186.963 204.53 187.16 205.107 187.269C205.455 187.343 205.819 187.281 206.122 187.095C206.263 186.983 206.378 186.842 206.458 186.681C206.538 186.52 206.581 186.343 206.585 186.163C206.613 185.878 206.576 185.591 206.479 185.322C206.38 185.072 206.25 184.835 206.092 184.617C205.7 184.08 205.179 183.65 204.577 183.367C204.387 183.284 204.342 183.443 204.395 183.655C204.462 183.941 204.606 184.203 204.812 184.413C205.203 184.775 205.524 185.207 205.759 185.686C205.808 185.895 205.808 186.113 205.759 186.322C205.706 186.481 205.683 186.542 205.44 186.587C205.105 186.595 204.772 186.522 204.471 186.375C204.125 186.226 203.789 186.056 203.463 185.868C202.705 185.474 202.016 185.004 201.281 184.549L199.94 183.708C199.265 183.276 198.576 182.867 197.886 182.458C197.356 182.14 196.848 181.791 196.272 181.519C196.149 181.448 196.02 181.39 195.886 181.344C195.386 181.147 195.083 181.231 194.999 181.45C194.981 181.496 194.968 181.545 194.962 181.594C194.983 181.672 195.031 181.739 195.098 181.784C195.132 181.812 195.17 181.835 195.212 181.852C195.269 181.886 195.33 181.914 195.393 181.935C196.363 182.418 197.306 182.952 198.22 183.534C198.939 183.981 199.667 184.428 200.387 184.89L200.447 184.868Z" fill="#313631"/>
<path d="M279.058 159.106C279.816 155.992 280.49 152.847 280.998 149.68C281.248 148.097 281.483 146.506 281.664 144.914C281.778 144.076 281.827 143.23 281.808 142.384C281.808 141.952 281.755 141.535 281.733 141.111C281.71 140.686 281.619 140.27 281.551 139.861C281.248 138.2 280.717 136.588 279.975 135.072C279.227 133.521 278.199 132.121 276.944 130.943C275.657 129.7 274.039 128.856 272.284 128.51C270.575 128.252 268.83 128.353 267.162 128.806C264.85 129.415 262.611 130.276 260.487 131.374C258.387 132.433 256.346 133.604 254.372 134.883C247.439 139.361 241.044 144.498 234.672 149.65C228.3 154.802 222.11 160.121 215.662 165.107C212.835 167.342 209.871 169.399 206.789 171.267C205.304 172.189 203.697 172.898 202.016 173.373C201.626 173.469 201.227 173.517 200.826 173.517C200.662 173.52 200.497 173.515 200.334 173.502L199.659 173.404C198.739 173.253 197.81 173.165 196.879 173.138C195.644 173.098 194.412 173.267 193.234 173.639C192.028 174.023 190.924 174.676 190.006 175.548C189.554 175.981 189.145 176.458 188.786 176.972C188.579 177.242 188.399 177.531 188.248 177.836C188.088 178.208 188.018 178.614 188.044 179.018C188.117 179.73 188.379 180.41 188.802 180.988C189.159 181.505 189.568 181.985 190.021 182.42C191.776 184.039 193.738 185.418 195.856 186.519C196.379 186.8 196.901 187.065 197.462 187.277C198.023 187.489 198.515 187.762 199.076 187.982C199.686 188.247 200.337 188.408 201 188.459C201.265 188.46 201.525 188.395 201.758 188.27C201.833 188.225 201.904 188.174 201.97 188.118L202.099 187.974C202.195 187.862 202.27 187.734 202.319 187.595C202.384 187.432 202.408 187.255 202.387 187.08C202.369 186.929 202.323 186.782 202.251 186.648C202.148 186.45 202.006 186.275 201.834 186.133C201.397 185.762 200.897 185.475 200.356 185.284C200.046 185.178 199.978 185.201 199.917 185.284C199.856 185.368 199.917 185.542 200.159 185.807C200.402 186.072 200.788 186.398 201.129 186.838C201.202 186.926 201.254 187.029 201.281 187.141C201.289 187.15 201.293 187.162 201.293 187.175C201.293 187.187 201.289 187.199 201.281 187.209H201.235L201.326 187.315C201.288 187.277 201.281 187.216 201.266 187.194C201.132 187.166 201 187.128 200.872 187.08C200.051 186.729 199.258 186.316 198.5 185.845C196.483 184.706 194.554 183.419 192.726 181.996C191.891 181.367 191.156 180.616 190.544 179.768C190.339 179.488 190.21 179.159 190.173 178.814C190.173 178.707 190.173 178.632 190.249 178.548L190.302 178.465L190.415 178.306L190.635 177.995C191.217 177.176 191.972 176.496 192.848 176.003C193.742 175.522 194.724 175.225 195.734 175.131C196.813 175.033 197.899 175.066 198.97 175.23L199.826 175.343L200.258 175.404L200.834 175.465C201.548 175.48 202.261 175.388 202.948 175.192C204.172 174.841 205.354 174.356 206.471 173.745C207.562 173.169 208.6 172.54 209.615 171.896C213.584 169.237 217.415 166.38 221.094 163.334C224.792 160.341 228.429 157.272 232.081 154.242C236.438 150.59 240.938 146.937 245.583 143.422C250.176 139.872 255.011 136.649 260.055 133.776C262.691 132.207 265.546 131.04 268.526 130.314C269.966 130.004 271.461 130.058 272.875 130.473C274.266 130.971 275.499 131.829 276.451 132.958C278.42 135.325 279.634 138.229 279.937 141.293C280.019 142.047 280.036 142.808 279.99 143.566C279.944 144.323 279.823 145.127 279.732 145.907C279.525 147.483 279.273 149.054 278.975 150.62C278.3 154.476 277.459 158.303 276.368 162.076C275.316 165.852 274.051 169.566 272.58 173.199C270.386 178.72 267.658 184.014 264.434 189.005C263.616 190.232 262.828 191.497 261.911 192.657L260.57 194.43C260.35 194.718 260.131 195.021 259.896 195.309L259.138 196.134L257.691 197.794C257.198 198.347 256.645 198.832 256.13 199.347C255.615 199.862 255.1 200.393 254.524 200.862L252.834 202.264C249.258 205.047 245.382 207.424 241.279 209.349C237.211 211.334 233.028 213.054 228.861 214.933C227.035 215.766 225.224 216.562 223.421 217.509C221.014 218.688 218.704 220.053 216.51 221.593C215.917 221.99 215.359 222.439 214.843 222.934C214.485 223.266 214.153 223.626 213.851 224.01C213.609 224.29 213.387 224.587 213.184 224.896C213.01 225.253 213.586 225.048 214.76 224.381C215.359 224.055 216.071 223.57 216.973 223.063C217.874 222.555 218.905 221.919 220.094 221.267C227.111 217.304 234.975 214.508 242.658 210.659C246.567 208.767 250.274 206.482 253.721 203.84C254.562 203.135 255.425 202.454 256.251 201.719L258.623 199.446C259.381 198.635 260.093 197.794 260.82 196.968L261.366 196.339L261.858 195.687L262.851 194.377C266.751 189.165 270.055 183.533 272.701 177.586C275.347 171.656 277.459 165.502 279.012 159.197L279.058 159.106Z" fill="#313631"/>
<g opacity="0.3">
<path d="M190.946 184.246C191.65 184.819 192.383 185.355 193.143 185.853C193.423 186.027 193.666 186.247 193.954 186.406C194.956 186.991 196.003 187.497 197.083 187.921C197.561 188.11 198.03 188.33 198.53 188.512C198.856 188.646 199.193 188.75 199.538 188.823C199.936 188.914 200.354 188.874 200.728 188.709C201.008 188.573 200.728 188.217 200.5 187.86C200.273 187.504 200.114 187.103 199.887 187.103C198.752 186.837 197.638 186.49 196.553 186.065C195.842 185.765 195.171 185.381 194.552 184.921C193.829 184.469 193.131 183.978 192.461 183.451C192.052 183.117 191.651 182.784 191.279 182.42C190.707 181.892 190.212 181.284 189.809 180.617C189.541 180.142 189.415 179.6 189.446 179.056C189.454 178.961 189.472 178.867 189.499 178.776C189.559 178.457 189.499 178.367 189.18 178.063L188.953 177.859C188.711 177.632 188.309 177.7 188.067 178.192C187.76 178.916 187.741 179.729 188.014 180.465C188.238 181.095 188.56 181.686 188.968 182.216C189.546 182.964 190.199 183.652 190.916 184.269L190.946 184.246Z" fill="#313631"/>
</g>
<g opacity="0.77">
<path d="M233.505 216.039C236.013 214.956 238.544 213.842 241.014 212.584C241.901 212.107 242.84 211.728 243.704 211.197C246.801 209.428 249.713 207.351 252.395 204.999C252.986 204.477 253.584 203.969 254.19 203.484L255.903 201.87C257.413 200.542 258.795 199.076 260.032 197.491C260.79 196.498 258.517 196.65 257.001 198.294C254.276 201.227 251.333 203.95 248.197 206.439C247.226 207.194 246.214 207.895 245.166 208.538C244.098 209.167 243.007 209.765 241.923 210.364C239.521 211.637 237.036 212.788 234.513 213.88L229.838 215.887C228.649 216.38 227.482 216.948 226.307 217.479C225.133 218.009 223.981 218.6 222.837 219.183C221.958 219.661 221.072 220.1 220.193 220.555L217.617 222.017C217.23 222.229 216.859 222.472 216.51 222.714C215.169 223.639 214.806 224.033 214.783 224.578C214.772 224.699 214.772 224.821 214.783 224.942C214.859 225.298 215.541 225.139 216.563 224.54C218.033 223.623 219.594 222.782 221.11 221.881L223.504 220.615C224.299 220.191 225.14 219.858 225.959 219.411C228.406 218.244 230.922 217.138 233.475 216.1L233.505 216.039Z" fill="#313631"/>
</g>
<path d="M205.319 218.107C205.827 218.706 206.365 219.282 206.918 219.843C207.115 220.047 207.297 220.274 207.509 220.471C208.266 221.151 209.079 221.765 209.941 222.305C210.328 222.548 210.699 222.835 211.047 223.063C211.473 223.463 211.995 223.745 212.563 223.881C212.926 223.927 213.252 222.123 212.783 221.858C211.911 221.343 211.025 220.85 210.07 220.343C209.504 219.984 208.994 219.545 208.555 219.039C208.032 218.532 207.524 217.994 207.039 217.433C206.751 217.085 206.448 216.736 206.175 216.365C205.359 215.413 204.724 214.319 204.304 213.137C204.259 213.02 204.205 212.906 204.145 212.796C203.918 212.394 203.705 212.326 203.266 212.546C203.164 212.589 203.065 212.64 202.97 212.698C202.825 212.775 202.709 212.897 202.639 213.046C202.569 213.195 202.55 213.362 202.584 213.523C202.863 214.49 203.295 215.406 203.864 216.236C204.289 216.888 204.751 217.524 205.243 218.145L205.319 218.107Z" fill="#313631"/>
<path d="M172.451 189.8C173.837 189.376 175.231 188.951 176.618 188.474C177.118 188.307 177.626 188.194 178.133 188.02C179.891 187.421 181.679 186.8 183.437 186.034C184.195 185.693 184.99 185.368 185.748 184.996C186.759 184.572 187.684 183.966 188.476 183.208C188.711 182.958 188.408 182.663 187.938 182.511C187.69 182.425 187.427 182.392 187.166 182.415C186.905 182.437 186.652 182.514 186.422 182.64C184.657 183.706 182.816 184.643 180.914 185.443C179.69 185.92 178.44 186.33 177.171 186.671C175.769 187.133 174.421 187.58 173.019 187.989L170.435 188.747C169.124 189.133 167.821 189.565 166.525 189.982C165.518 190.3 164.502 190.565 163.495 190.944C163.275 191.02 163.055 191.096 162.835 191.194C162.032 191.55 161.843 191.816 161.896 192.27C161.896 192.375 161.909 192.479 161.934 192.581C162.032 192.914 162.472 192.982 163.04 192.785C164.752 192.232 166.525 191.619 168.344 191.058C169.708 190.644 171.092 190.237 172.496 189.838L172.451 189.8Z" fill="#313631"/>
<path d="M133.361 202.969C135.732 199.925 138.939 197.64 142.59 196.392C146.324 195.063 150.238 194.31 154.198 194.157C157.092 194.02 160.077 194.157 163.025 194.157C173.476 194.238 183.927 194.404 194.378 194.657C199.015 194.771 203.683 194.945 208.282 195.134C214.192 195.384 220.117 195.74 226.035 195.748C229.725 195.748 225.125 193.626 218.314 193.354C206.236 192.884 194.166 192.596 181.944 192.497C174.663 192.497 167.079 192.179 159.615 192.134C157.569 192.134 155.493 192.134 153.417 192.263C151.333 192.396 149.26 192.667 147.212 193.073C145.14 193.465 143.11 194.054 141.15 194.831C139.183 195.617 137.324 196.651 135.619 197.907C133.503 199.477 131.735 201.468 130.429 203.757C129.167 206.071 128.444 208.64 128.315 211.273C128.041 215.3 129.318 219.28 131.884 222.396C132.559 223.162 133.355 223.812 134.24 224.321C134.671 224.563 135.116 224.778 135.574 224.965C136.021 225.162 136.453 225.381 136.907 225.556C138.709 226.258 140.564 226.818 142.454 227.23C148.228 228.392 154.114 228.9 160.002 228.745C161.29 228.745 162.555 228.745 163.843 228.7C168.639 228.571 170.14 228.412 171.162 227.859C171.4 227.751 171.628 227.624 171.844 227.48C172.299 227.063 170.329 226.722 166.806 226.722C161.593 226.722 156.266 226.844 150.947 226.472C145.628 226.101 140.294 225.162 135.589 222.82C134.827 222.43 134.133 221.918 133.535 221.305C132.927 220.636 132.405 219.893 131.982 219.092C131.105 217.434 130.564 215.619 130.391 213.751C129.997 209.952 131.053 206.144 133.346 203.09L133.361 202.969Z" fill="#313631"/>
<path d="M280.823 198.726C283.149 198.726 285.483 198.726 287.809 198.817C288.658 198.817 289.506 198.915 290.355 198.93C293.386 198.991 296.348 199.051 299.341 199.188C300.667 199.248 302.001 199.377 303.312 199.521C304.989 199.781 306.683 199.928 308.381 199.961C309.441 199.961 308.312 197.854 306.35 197.65C302.878 197.277 299.386 197.112 295.894 197.157C293.795 197.157 291.628 196.968 289.484 196.907C287.127 196.831 284.771 196.786 282.414 196.756L278.065 196.71C275.876 196.71 273.671 196.71 271.489 196.627C269.799 196.574 268.14 196.422 266.465 196.316C266.101 196.316 265.707 196.256 265.366 196.248C263.987 196.203 263.548 196.339 263.252 196.877C263.177 196.994 263.114 197.119 263.063 197.248C262.927 197.665 263.487 198.006 264.495 198.135C267.576 198.467 270.671 198.644 273.769 198.665L280.816 198.779L280.823 198.726Z" fill="#313631"/>
<path d="M247.902 231.375C251.493 231.466 255.085 231.541 258.668 231.579C259.979 231.579 261.29 231.67 262.601 231.678C267.215 231.678 271.83 231.632 276.444 231.602C278.49 231.602 280.551 231.602 282.574 231.67C285.18 231.723 287.802 231.882 290.408 231.708C292.03 231.602 289.991 229.821 286.983 229.783C281.68 229.7 276.376 229.784 270.966 229.935C267.761 230.041 264.419 229.935 261.116 229.859C257.509 229.806 253.903 229.746 250.296 229.647L243.636 229.427C240.272 229.291 236.892 229.162 233.558 228.935C230.975 228.761 228.436 228.48 225.883 228.23L224.201 228.056C222.095 227.889 221.42 227.965 220.935 228.42C220.814 228.509 220.705 228.614 220.61 228.73C220.382 229.086 221.223 229.488 222.761 229.67C227.308 230.306 232.157 230.655 237.014 230.935C240.62 231.14 244.25 231.276 247.871 231.42L247.902 231.375Z" fill="#313631"/>
<path d="M136.309 224.881C135.407 225.154 134.036 224.707 132.361 225.048C121.534 227.215 97.242 232.102 94.0143 235.966C90.2713 240.444 53.1595 310.341 50.5303 308.902C46.3175 306.629 33.3837 298.771 31.4668 293.028C34.2702 286.209 56.4706 243.339 64.9416 226.609C68.1845 220.199 72.2003 212.728 78.5043 208.886C92.6428 200.271 138.892 196.597 141.688 195.725C134.748 195.725 119.799 212.637 136.309 224.881Z" fill="#313631"/>
<path d="M58.2967 237.148C50.159 253.227 41.9305 269.259 33.9823 285.459C33.2701 286.974 32.5427 288.421 31.8456 289.922C31.4819 290.679 31.1485 291.437 30.8 292.195L30.5879 292.672L30.4818 292.922C30.46 292.962 30.4447 293.006 30.4363 293.051L30.4893 293.172L30.8833 294.074C31.0564 294.493 31.2749 294.892 31.535 295.263C32.4873 296.703 33.6176 298.017 34.8991 299.173C36.1221 300.316 37.407 301.391 38.7482 302.393C40.506 303.727 42.3094 304.969 44.1581 306.182C45.0749 306.765 46.0069 307.348 46.9464 307.909L48.3633 308.743L50.0151 309.667C50.2254 309.764 50.4511 309.823 50.6818 309.841C50.9173 309.817 51.1434 309.737 51.341 309.606C51.7023 309.361 52.0264 309.065 52.3033 308.727C52.7276 308.243 53.061 307.765 53.4474 307.273C54.1521 306.295 54.8037 305.31 55.4477 304.31C56.7358 302.317 57.9633 300.302 59.1756 298.249C61.6002 294.203 63.949 290.119 66.2752 286.019C70.935 277.829 75.4963 269.593 80.0727 261.372C82.5731 256.879 85.0887 252.378 87.6497 247.908C88.9226 245.672 90.1955 243.445 91.4987 241.24C92.1453 240.134 92.8045 239.043 93.4763 237.967C93.8097 237.444 94.1658 236.891 94.5068 236.451C94.8901 236.046 95.335 235.703 95.8252 235.436C97.2325 234.681 98.7029 234.049 100.22 233.549C101.735 233.011 103.304 232.534 104.872 232.087C108.016 231.2 111.191 230.412 114.381 229.662C117.571 228.912 120.768 228.215 123.973 227.526L128.777 226.495L131.179 225.987L132.384 225.73C132.75 225.647 133.123 225.594 133.498 225.571C134.43 225.525 135.18 225.571 135.71 225.51C136.24 225.45 136.468 225.237 136.415 225.177C136.362 225.116 136.036 225.086 135.566 224.98C134.899 224.804 134.22 224.673 133.535 224.586C133.032 224.532 132.524 224.532 132.02 224.586L130.338 224.76C129.141 224.889 127.785 225.063 126.315 225.283C123.375 225.715 119.935 226.321 116.237 227.162C112.964 227.92 109.698 228.677 106.44 229.587C103.139 230.432 99.9007 231.508 96.7495 232.807C95.9086 233.175 95.1001 233.614 94.3325 234.118C93.8853 234.404 93.4777 234.748 93.1202 235.14C92.8192 235.504 92.5408 235.886 92.2867 236.285C91.3472 237.739 90.5061 239.186 89.6575 240.641C87.9679 243.543 86.3237 246.468 84.6795 249.393L65.1007 284.648C62.7822 288.77 60.4106 292.922 57.9405 297.051C56.6979 299.112 55.4477 301.173 54.1521 303.189C53.4929 304.204 52.8261 305.204 52.129 306.166C51.7805 306.644 51.4244 307.114 51.0607 307.538L50.8182 307.803C50.7867 307.84 50.7511 307.873 50.7122 307.902C50.6754 307.934 50.6312 307.958 50.5833 307.97C50.5356 307.962 50.4909 307.941 50.4545 307.909L49.5529 307.402L48.4467 306.757C47.689 306.326 46.9919 305.871 46.2721 305.424C44.8249 304.515 43.4156 303.568 42.0214 302.598C39.2437 300.704 36.678 298.517 34.3687 296.074C34.005 295.665 33.6944 295.233 33.3534 294.816L32.9367 294.149C32.7897 293.938 32.6653 293.712 32.5654 293.475C32.4442 293.187 32.4215 293.157 32.3836 293.066L32.5881 292.604C32.8079 292.089 33.0276 291.581 33.2776 291.088C34.2248 289.043 35.2174 287.004 36.2099 284.974C38.2027 280.897 40.2409 276.844 42.2715 272.783L54.5764 248.483L62.1533 233.542L65.9418 226.063C67.2071 223.586 68.5104 221.131 69.9954 218.805C72.2306 215.289 74.9053 211.985 78.33 209.712C80.098 208.618 81.9713 207.704 83.9218 206.985C85.8691 206.227 87.8845 205.598 89.9 205.007C98.0269 202.816 106.281 201.128 114.616 199.953C119.162 199.264 123.708 198.673 128.217 198.127L134.998 197.369L138.377 196.983L140.074 196.771L140.931 196.642L141.37 196.574L141.855 196.468L148.091 195.066L141.65 195.112C140.598 195.151 139.566 195.409 138.62 195.869C137.708 196.287 136.84 196.795 136.028 197.385C134.439 198.556 133.025 199.949 131.831 201.522C129.996 203.857 128.749 206.598 128.194 209.515C127.766 211.859 127.938 214.272 128.694 216.531C129.22 218.051 129.988 219.476 130.967 220.752C132.001 222.142 133.315 223.301 134.824 224.154C135.309 224.396 135.915 224.745 136.218 224.843C136.733 224.995 136.15 224.381 134.824 223.048C133.998 222.2 133.238 221.291 132.551 220.328C131.583 219.015 130.836 217.554 130.338 216.001C129.734 214.052 129.607 211.986 129.967 209.977C130.352 207.931 131.123 205.977 132.24 204.219C132.802 203.325 133.43 202.474 134.119 201.673C134.819 200.881 135.579 200.144 136.392 199.468C137.198 198.807 138.071 198.233 138.998 197.756C139.846 197.311 140.778 197.053 141.734 196.998L141.4 194.778L141.165 194.831L140.862 194.884L140.203 194.983L138.847 195.157L136.089 195.483L130.535 196.134C126.807 196.581 123.072 197.051 119.314 197.574C111.812 198.627 104.258 199.847 96.7571 201.522C94.5295 202.029 92.3019 202.567 90.0894 203.196C87.877 203.825 85.6721 204.492 83.5051 205.325C81.279 206.138 79.1475 207.19 77.1481 208.462C75.1761 209.811 73.4035 211.431 71.8821 213.273C68.8513 216.888 66.5782 220.987 64.4946 225.048L58.3118 237.216L58.2967 237.148Z" fill="#313631"/>
<path d="M287.127 324.215C285.051 335.982 287.127 339.808 287.127 339.808C290.916 342.043 297.333 340.763 298.932 339.808C300.531 338.853 300.205 324.018 300.046 323.063L287.127 324.215Z" fill="#313631"/>
<path d="M298.72 332.527C298.72 333.769 298.675 335.004 298.584 336.209C298.538 336.815 298.47 337.414 298.379 337.967C298.337 338.222 298.281 338.475 298.212 338.725C298.212 338.808 298.174 338.868 298.114 338.906L298.038 338.952L297.811 339.05C297.652 339.126 297.455 339.179 297.288 339.247C296.328 339.529 295.344 339.721 294.348 339.823C292.609 340.093 290.834 340.026 289.12 339.626C288.917 339.575 288.717 339.511 288.521 339.437C288.423 339.399 288.317 339.376 288.226 339.331L288.014 339.24C287.946 339.24 287.824 339.179 287.802 339.081C287.779 338.982 287.802 338.997 287.749 338.952C287.696 338.906 287.68 338.77 287.65 338.671C287.395 337.813 287.22 336.933 287.127 336.042C286.968 334.412 286.968 332.77 287.127 331.14C287.309 329.041 287.726 326.958 287.885 324.836C287.968 323.502 285.529 324.775 285.172 327.306C284.848 329.543 284.721 331.805 284.794 334.065C284.834 335.227 284.961 336.384 285.172 337.527C285.292 338.119 285.446 338.704 285.635 339.278C285.767 339.688 285.935 340.086 286.135 340.467C286.21 340.725 286.476 340.785 286.68 340.907L287.029 341.073L287.309 341.195C288.69 341.717 290.145 342.014 291.62 342.074C293.053 342.159 294.49 342.073 295.901 341.816C296.474 341.714 297.041 341.58 297.599 341.414C297.879 341.339 298.159 341.24 298.44 341.134C298.584 341.089 298.735 341.02 298.879 340.96C299.023 340.899 299.243 340.778 299.432 340.679C299.943 340.226 300.269 339.6 300.349 338.922C300.466 338.422 300.552 337.916 300.607 337.406C300.72 336.436 300.781 335.482 300.819 334.534C300.895 332.678 300.895 330.845 300.887 329.003C300.887 327.617 300.834 326.223 300.781 324.836V324.169C300.781 323.927 300.781 323.677 300.735 323.412L300.66 322.699V322.343C300.541 322.336 300.422 322.336 300.304 322.343C299.841 322.343 299.356 322.389 298.864 322.442L297.712 322.54C295.583 322.699 293.484 322.737 291.378 322.828C290.908 322.828 290.454 322.828 289.984 322.874C288.256 322.995 287.711 323.192 287.4 323.813C287.316 323.947 287.245 324.09 287.188 324.237C287.067 324.715 287.802 324.995 289.082 325.048C290.976 325.048 292.916 325.048 294.878 324.912L297.833 324.707L298.591 324.654H298.606C298.606 324.654 298.606 324.616 298.606 324.753V325.844V328.049C298.606 329.519 298.606 330.988 298.606 332.451L298.72 332.527Z" fill="#313631"/>
<path d="M150.03 321.176C152.107 332.943 150.03 336.012 150.03 336.012C146.204 338.247 139.824 336.967 138.226 336.012C136.627 335.057 137.506 319.669 137.665 318.714L150.03 321.176Z" fill="#313631"/>
<path d="M135.892 328.359C135.93 329.875 135.998 331.322 136.15 332.83C136.223 333.617 136.347 334.399 136.521 335.171C136.582 335.415 136.657 335.656 136.748 335.891C136.81 336.041 136.88 336.188 136.96 336.33C137.05 336.461 137.146 336.588 137.248 336.709C137.471 336.925 137.727 337.104 138.006 337.239C138.157 337.308 138.256 337.338 138.354 337.376L138.657 337.489C139.745 337.855 140.867 338.109 142.006 338.247C144.005 338.476 146.028 338.34 147.977 337.846L148.735 337.618L149.492 337.323C149.766 337.203 150.031 337.066 150.288 336.914C150.455 336.839 150.609 336.736 150.743 336.611C150.835 336.454 150.918 336.292 150.993 336.126C151.061 335.974 151.144 335.732 151.175 335.633L151.288 335.254C151.349 335.002 151.402 334.749 151.447 334.497C151.538 334.004 151.599 333.512 151.644 333.027C151.771 331.322 151.797 329.612 151.72 327.905C151.709 325.746 151.439 323.597 150.917 321.502C150.538 320.214 148.742 322.26 149.038 324.594C149.303 326.67 149.458 328.759 149.5 330.852C149.515 331.865 149.46 332.878 149.333 333.883C149.333 334.133 149.258 334.36 149.22 334.588C149.182 334.815 149.091 335.088 149.114 335.057C149.136 335.027 149.076 335.156 149.053 335.186L148.955 335.247L148.811 335.338L148.485 335.489C147.379 335.976 146.185 336.234 144.977 336.247C143.707 336.266 142.438 336.162 141.188 335.936C140.524 335.819 139.87 335.649 139.233 335.429L139.036 335.36L138.945 335.322C138.88 335.296 138.827 335.248 138.794 335.186C138.752 335.118 138.721 335.044 138.703 334.966C138.657 334.838 138.62 334.663 138.582 334.512C138.334 333.115 138.189 331.702 138.15 330.284C138.074 328.496 138.059 326.7 138.082 324.904C138.082 323.54 138.135 322.177 138.195 320.813V320.116C138.196 319.925 138.214 319.735 138.248 319.547L139.536 319.805C141.605 320.244 143.605 320.798 145.598 321.32C146.045 321.426 146.477 321.563 146.931 321.661C148.614 322.033 149.205 321.995 149.652 321.479C149.772 321.377 149.878 321.26 149.97 321.131C150.227 320.714 149.614 320.207 148.401 319.828C146.613 319.267 144.757 318.782 142.863 318.312C141.916 318.093 140.953 317.88 139.991 317.676L138.953 317.464C138.476 317.373 137.976 317.244 137.521 317.191L136.831 317.092L136.483 317.039H136.309C136.299 317.095 136.299 317.151 136.309 317.206L136.127 318.6C136.074 318.941 136.059 319.32 136.028 319.676L135.968 320.601L135.915 321.714L135.846 323.942C135.809 325.457 135.801 326.92 135.846 328.412L135.892 328.359Z" fill="#313631"/>
<path d="M273.618 92.0729C271.981 94.3991 269.14 98.0284 265.935 97.695C260.502 97.1192 265.177 91.4365 266.048 88.9891C266.23 88.4739 267.859 88.9891 267.692 89.4362C267.223 90.7621 266.253 91.9441 265.654 93.2246C265.056 94.5051 264.086 97.6268 266.662 96.6039C268.89 95.725 270.738 93.361 272.08 91.4516C272.367 91.0501 273.966 91.5804 273.595 92.0729H273.618Z" fill="#313631"/>
<path d="M263.51 88.1178C262.252 90.3909 259.956 93.9823 256.948 93.5201C251.811 92.7245 256.054 87.6253 256.948 85.087C257.085 84.6627 258.721 85.1476 258.593 85.5265C258.176 86.7539 257.312 87.8526 256.774 89.0346C256.41 89.7923 255.191 93.111 257.123 92.7624C258.426 92.52 259.615 90.9515 260.366 89.9817C260.926 89.2621 261.432 88.5024 261.881 87.7086C262.123 87.2767 263.684 87.8677 263.533 88.1481L263.51 88.1178Z" fill="#313631"/>
<path d="M260.949 93.1867C261.824 91.8711 262.567 90.4727 263.169 89.0119C263.407 88.4689 263.604 87.9092 263.76 87.3374C263.894 86.8095 263.965 86.2679 263.972 85.7235C263.994 85.1569 263.932 84.5903 263.79 84.0414C263.446 82.9442 262.699 82.0183 261.699 81.4501C260.895 80.9756 260.028 80.6184 259.123 80.3893C258.011 80.0463 256.839 79.938 255.683 80.0711C255.312 80.1393 255.403 80.5636 255.683 80.9652C255.84 81.1941 256.042 81.3888 256.276 81.5373C256.511 81.6858 256.773 81.785 257.047 81.8289C259.085 82.0335 261.207 82.526 262.093 84.0035L262.275 84.3596C262.318 84.4904 262.348 84.6248 262.366 84.7612C262.397 84.8987 262.419 85.0378 262.434 85.1779V85.625C262.401 86.2542 262.273 86.8749 262.055 87.4662C261.584 88.8612 260.951 90.1962 260.169 91.444C259.685 92.2279 259.161 92.9866 258.6 93.7171C257.762 94.8353 256.826 95.8774 255.804 96.8312C255.021 97.5302 254.153 98.1284 253.221 98.6118C253.024 98.7103 252.827 98.7937 252.63 98.877C251.872 99.1877 251.789 99.271 251.652 99.7256C251.614 99.8241 251.561 99.9302 251.531 100.029C251.507 100.118 251.518 100.213 251.561 100.295C251.605 100.377 251.678 100.439 251.766 100.468C252.069 100.584 252.4 100.6 252.713 100.514C253.779 100.215 254.776 99.7076 255.645 99.021C256.499 98.3761 257.297 97.6614 258.032 96.8843C259.101 95.731 260.076 94.4946 260.949 93.1867Z" fill="#313631"/>
<path d="M267.768 82.9428C268.177 83.9505 268.458 84.1475 268.761 84.1626C269.761 84.2384 270.754 84.3369 271.716 84.4884C272.548 84.5791 273.371 84.7362 274.178 84.9582C275.5 85.3561 276.689 86.1051 277.618 87.1252C278.152 87.6992 278.527 88.4013 278.709 89.1634C278.709 89.2316 278.709 89.2998 278.785 89.3453C278.947 89.3861 279.116 89.3875 279.278 89.3493C279.44 89.311 279.591 89.2343 279.717 89.1255C279.778 89.0725 279.891 88.9967 279.884 88.9664C279.778 88.6482 280.232 88.1481 280.066 87.7844C279.899 87.4207 279.709 87.1479 279.566 86.807C279.417 86.4623 279.223 86.1387 278.99 85.8447C278.823 85.5946 278.612 85.3765 278.368 85.2007C278.05 84.9809 277.717 84.7915 277.399 84.6021C276.855 84.2743 276.294 83.9783 275.716 83.7156C274.746 83.2958 273.728 82.9956 272.686 82.8215C271.252 82.5602 269.79 82.4813 268.337 82.5866C268.131 82.6766 267.939 82.7966 267.768 82.9428Z" fill="#313631"/>
<path d="M252.523 110.841C252.523 110.841 252.523 110.841 252.523 110.803C252.523 110.765 252.637 110.75 252.698 110.803C252.758 110.856 252.66 110.871 252.645 110.909C252.622 110.953 252.594 110.994 252.561 111.03L252.493 111.076C252.425 111.076 252.326 110.902 252.395 110.78C252.474 110.674 252.59 110.601 252.72 110.576C252.786 110.549 252.859 110.549 252.925 110.576V110.614L253.099 110.553H253.061H252.955C252.955 110.553 252.955 110.598 252.955 110.621C253.043 110.688 253.144 110.734 253.251 110.758C253.358 110.781 253.469 110.781 253.577 110.758C253.668 110.749 253.756 110.72 253.835 110.673C253.914 110.626 253.981 110.561 254.031 110.485C254.062 110.433 254.09 110.38 254.115 110.326C254.126 110.25 254.126 110.174 254.115 110.098C254.121 109.994 254.095 109.891 254.039 109.803C253.934 109.668 253.809 109.55 253.668 109.454C253.491 109.367 253.302 109.311 253.107 109.288C252.546 109.284 252.005 109.492 251.592 109.871C251.44 109.999 251.318 110.159 251.235 110.339C251.151 110.519 251.108 110.715 251.108 110.913C251.108 111.111 251.151 111.307 251.235 111.487C251.318 111.667 251.44 111.827 251.592 111.955C251.668 112.01 251.749 112.058 251.834 112.099L252.061 112.175H252.22C252.413 112.18 252.604 112.144 252.781 112.068C253.152 111.911 253.469 111.648 253.69 111.311C253.808 111.137 253.864 110.929 253.849 110.72C253.796 110.561 253.736 110.606 253.683 110.682C253.636 110.756 253.595 110.835 253.562 110.917C253.562 110.917 253.562 110.917 253.501 111L253.357 111.152L253.061 111.447C253.061 111.493 252.94 111.538 252.948 111.591L252.887 111.637C252.883 111.645 252.88 111.654 252.88 111.663C252.88 111.672 252.883 111.682 252.887 111.69C252.947 111.727 253.017 111.747 253.088 111.747C253.159 111.747 253.229 111.727 253.289 111.69C253.482 111.556 253.623 111.361 253.69 111.136C253.74 110.977 253.766 110.811 253.766 110.644V110.318L253.501 110.227C253.261 110.128 252.998 110.101 252.743 110.151C252.575 110.2 252.426 110.301 252.319 110.439C252.239 110.552 252.18 110.678 252.145 110.811C252.107 110.978 252.081 111.147 252.069 111.318L252.023 111.712H252.857C252.979 111.708 253.101 111.693 253.221 111.667L253.577 111.584V111.099C253.584 111.015 253.584 110.932 253.577 110.849C253.541 110.686 253.465 110.535 253.357 110.409C253.299 110.347 253.233 110.293 253.16 110.25L252.963 110.136L252.546 110.235C252.448 110.235 252.387 110.432 252.455 110.72V110.826C252.445 110.839 252.44 110.855 252.44 110.871C252.44 110.888 252.445 110.904 252.455 110.917C252.455 110.917 252.501 110.917 252.501 110.917C252.501 110.917 252.501 110.841 252.501 110.803V110.697V110.652C252.501 110.72 252.501 110.78 252.501 110.803C252.501 110.826 252.501 110.841 252.501 110.841L252.546 110.902C252.546 110.955 252.66 111.106 252.683 111.174C252.723 111.217 252.773 111.248 252.829 111.265C252.885 111.282 252.944 111.285 253.001 111.273H253.092H252.425C252.539 111.099 252.599 111.167 252.349 111.205L252.751 110.379H252.622C252.516 110.366 252.409 110.366 252.304 110.379L253.448 111.371V111.265H253.334C253.213 111.236 253.1 111.182 253.001 111.106C252.948 111.061 252.963 111.053 253.001 111.106C253.03 111.256 253.03 111.411 253.001 111.561C253.001 111.637 253.001 111.606 253.001 111.614H253.046L252.501 110.727V110.833L252.523 110.841Z" fill="#313631"/>
<path d="M309.843 302.249C311.192 293.157 312.245 284.012 313.215 274.881C314.184 265.751 315.033 256.613 315.836 247.468C317.435 229.185 318.806 210.887 320.079 192.588C321.011 179.23 321.951 165.88 322.769 152.529C323.481 140.75 324.161 128.975 324.807 117.206C325.436 105.439 326.111 93.6489 326.588 81.882C326.921 76.0023 327.277 70.0847 327.156 64.1368C327.116 61.1503 326.914 58.1682 326.55 55.2036C326.202 52.1913 325.49 49.2323 324.428 46.3917C323.877 44.9327 323.133 43.5541 322.216 42.2926C321.282 40.9723 320.072 39.8709 318.67 39.0648C317.272 38.3588 315.79 37.8318 314.26 37.4964C312.749 37.1361 311.199 36.9681 309.646 36.9963C306.471 37.0408 303.399 38.1269 300.902 40.0877C298.492 42.0492 296.59 44.5624 295.356 47.4145C294.249 49.8801 293.484 52.4854 293.083 55.1582C292.863 56.4841 292.765 57.848 292.666 59.1361L292.348 63.0457C291.908 68.2587 291.444 73.4741 290.954 78.6921C289.984 89.1179 288.974 99.5008 287.923 109.841C285.263 136.36 282.422 163.023 279.861 189.55C279.459 193.695 279.406 195.445 279.664 195.377C279.922 195.309 280.497 193.323 281.179 189.853C282.558 182.928 284.498 170.1 286.067 154.802C288.832 127.7 291.522 100.597 293.947 73.4034L294.848 63.1973L295.25 58.0904C295.379 56.4647 295.633 54.8512 296.007 53.2639C296.674 50.1305 298.002 47.1755 299.902 44.5959C300.835 43.3641 301.963 42.2941 303.243 41.4288C304.512 40.5907 305.929 40.0018 307.418 39.6937C310.525 39.1643 313.718 39.5296 316.624 40.7469C319.322 41.8001 321.17 44.4899 322.322 47.4903C323.431 50.6104 324.136 53.8595 324.421 57.1585C324.751 60.5249 324.903 63.9064 324.876 67.2888C324.876 71.3576 324.671 75.4643 324.444 79.5937C324.33 81.6622 324.201 83.7383 324.125 85.8447L324.088 87.4056L324.012 88.9209L323.86 92.0426C323.406 100.377 322.951 108.772 322.489 117.183C321.527 134.004 320.466 150.915 319.382 167.675C318.19 186.108 316.887 204.545 315.473 222.987C314.025 241.407 312.442 259.811 310.457 278.162C309.199 289.452 307.85 300.749 305.789 311.879L304.895 316.009C304.736 316.698 304.547 317.365 304.372 318.047L304.107 319.062L303.978 319.547C303.967 319.64 303.939 319.73 303.895 319.813C303.84 319.882 303.773 319.941 303.698 319.987C303.606 320.047 303.51 320.101 303.41 320.146C303.117 320.274 302.816 320.383 302.508 320.472C301.872 320.669 301.205 320.828 300.523 320.972C299.167 321.252 297.773 321.464 296.379 321.654C290.787 322.411 285.119 322.775 279.459 323.101C262.29 324.033 245.037 324.26 227.823 324.2C210.608 324.139 193.416 323.692 176.383 322.646C168.958 322.177 161.585 321.586 154.296 320.691C150.652 320.237 147.03 319.714 143.476 318.987C141.716 318.631 139.976 318.181 138.263 317.638C137.439 317.375 136.638 317.043 135.869 316.645C135.112 316.274 134.483 315.729 134.46 315.365C133.604 309.773 133.505 303.931 133.407 298.203C133.308 292.475 133.407 286.686 133.475 280.928C133.543 275.169 133.755 269.494 133.937 263.668C134.649 242.073 134.877 235.201 134.384 230.526C134.278 229.465 134.18 228.064 134.043 227.45C133.808 226.427 133.551 228.071 133.195 231.996C132.838 235.921 132.437 242.058 132.073 249.968C131.581 260.652 131.164 271.472 130.974 282.428C130.899 287.906 130.823 293.415 130.929 298.968C131.035 304.522 131.111 310.053 132.035 315.857C132.079 316.052 132.135 316.245 132.202 316.433C132.284 316.615 132.375 316.792 132.475 316.964L132.801 317.403C132.914 317.524 133.02 317.638 133.134 317.744C133.53 318.112 133.971 318.43 134.445 318.691C135.254 319.142 136.104 319.518 136.983 319.813C138.624 320.366 140.296 320.821 141.991 321.176C145.318 321.934 148.644 322.411 151.985 322.858C158.668 323.73 165.374 324.313 172.11 324.791C185.574 325.723 199.121 326.2 212.684 326.473C231.172 326.806 249.705 326.745 268.253 326.094C272.89 325.927 277.527 325.715 282.172 325.427C286.817 325.139 291.446 324.775 296.106 324.192C298.503 323.934 300.877 323.491 303.206 322.866C303.509 322.775 303.827 322.669 304.16 322.533C304.319 322.464 304.494 322.389 304.675 322.298C304.923 322.172 305.159 322.025 305.38 321.858C305.831 321.52 306.154 321.039 306.297 320.494L306.555 319.502C306.842 318.35 307.191 317.229 307.418 316.054L308.176 312.614C308.411 311.463 308.593 310.341 308.805 309.167C309.229 306.894 309.563 304.575 309.926 302.272L309.843 302.249Z" fill="#313631"/>
<path d="M292.083 136.769L294.197 114.561C294.462 111.864 294.735 109.159 295 106.469C295.848 96.9474 296.621 87.4157 297.318 77.8738C297.637 73.6459 297.97 69.3876 298.137 65.1521C298.205 62.4758 298.438 59.8062 298.834 57.1585C299.028 55.8588 299.307 54.5731 299.667 53.3094C299.984 52.0895 300.523 50.9387 301.258 49.9149C301.456 49.6739 301.638 49.4209 301.804 49.1572C301.838 49.0998 301.866 49.0388 301.887 48.9754C301.915 48.8976 301.931 48.8157 301.933 48.7329C301.933 48.6041 301.88 48.5662 301.834 48.5738C301.767 48.6156 301.706 48.6666 301.652 48.7254C301.577 48.8011 301.47 48.7936 301.372 48.8466C301.077 48.9267 300.796 49.0519 300.538 49.2179C299.646 49.8336 298.924 50.6651 298.44 51.6349C297.751 52.9516 297.273 54.3679 297.023 55.8325C296.546 58.6164 296.293 61.4338 296.265 64.258C296.174 67.0464 296.076 69.7134 295.879 72.4866C295.545 77.9874 295.121 83.511 294.757 89.0649C294.303 95.7023 293.553 102.59 292.916 109.363L290.779 131.723C290.32 136.315 289.86 140.901 289.4 145.483C288.643 152.423 287.968 159.394 287.127 166.274C286.498 171.623 285.763 176.881 285.044 182.125C284.877 183.284 284.718 184.398 284.551 185.587C283.96 189.929 283.892 191.293 284.187 192.27C284.238 192.51 284.307 192.745 284.392 192.975C284.528 193.248 284.756 192.975 285.044 192.172C285.446 190.999 285.75 189.796 285.953 188.573C287.468 179.155 288.643 169.183 289.741 159.167C290.575 151.726 291.34 144.248 292.105 136.784L292.083 136.769Z" fill="#313631"/>
<path d="M244.977 56.1962C244.507 56.0901 243.871 57.0372 243.681 57.3327C243.272 57.9731 243.028 58.7044 242.969 59.4619C242.901 60.3484 240.696 59.8483 240.772 58.8709C240.961 56.522 242.833 54.2792 245.318 54.8475C245.712 54.9384 246.371 55.3249 246.235 55.8174C246.098 56.3099 245.341 56.2795 244.962 56.1962H244.977Z" fill="#313631"/>
<path d="M239.673 52.1426C239.037 52.0137 238.355 52.6805 238.006 53.12C237.525 53.7367 237.231 54.4781 237.158 55.2567C237.067 56.0977 234.884 55.5976 234.96 54.6657C235.092 53.495 235.653 52.4148 236.536 51.6349C237.015 51.2424 237.579 50.969 238.184 50.8373C238.788 50.7056 239.416 50.7193 240.014 50.8772C240.385 50.953 241.067 51.3318 240.938 51.8016C240.81 52.2714 240.029 52.2183 239.673 52.1426Z" fill="#313631"/>
</svg>
