<svg width="389" height="443" viewBox="0 0 389 443" fill="none" xmlns="http://www.w3.org/2000/svg">
<path d="M208.249 2.43306C208.438 2.44897 208.612 2.53903 208.734 2.68344C208.856 2.82784 208.915 3.01475 208.899 3.20306C208.883 3.39136 208.793 3.56563 208.649 3.68753C208.504 3.80943 208.318 3.86897 208.129 3.85306C208.036 3.84518 207.945 3.81901 207.862 3.77605C207.779 3.73309 207.705 3.67418 207.645 3.60267C207.584 3.53117 207.539 3.44848 207.51 3.35933C207.482 3.27017 207.471 3.17629 207.479 3.08306C207.487 2.98982 207.513 2.89905 207.556 2.81592C207.599 2.73279 207.658 2.65894 207.73 2.59859C207.801 2.53823 207.884 2.49254 207.973 2.46414C208.062 2.43574 208.156 2.42518 208.249 2.43306Z" fill="#D5D5D5"/>
<path d="M235.139 248.303C230.113 251.797 225.338 255.64 220.849 259.803C216.55 264.153 212.579 268.816 208.969 273.753C205.229 278.663 201.529 283.643 197.469 288.383C195.419 290.733 193.299 293.033 191.019 295.193C188.73 297.366 186.287 299.371 183.709 301.193C176.279 306.263 169.049 311.603 162.859 317.993C160.128 320.785 157.63 323.795 155.389 326.993C154.269 328.593 153.219 330.253 152.249 331.993C151.279 333.733 150.249 335.473 149.249 337.173C144.919 344.063 138.889 349.653 132.479 354.413C126.069 359.173 119.239 363.313 112.739 367.823C106.248 372.343 100.056 377.277 94.1992 382.593C88.9864 387.314 84.0609 392.343 79.4492 397.653C77.1592 400.313 74.9292 403.023 72.8392 405.823C70.7492 408.623 68.4792 411.403 66.0892 413.993C59.9314 420.719 52.6535 426.325 44.5792 430.563C40.5445 432.646 36.3674 434.44 32.0792 435.933C27.8935 437.459 23.8144 439.263 19.8692 441.333C17.4092 442.633 16.3192 443.153 16.2692 442.923C16.2192 442.693 17.2692 441.743 19.2692 440.373C21.9958 438.499 24.8722 436.854 27.8692 435.453C29.7192 434.573 31.8692 433.723 33.9692 432.853C36.0692 431.983 38.3592 430.993 40.6692 429.913C48.8533 426.07 56.2995 420.82 62.6692 414.403C65.8328 411.16 68.776 407.709 71.4792 404.073C74.2892 400.383 77.2792 396.843 80.3992 393.413C86.658 386.579 93.4239 380.228 100.639 374.413C104.239 371.493 107.959 368.713 111.799 366.073C115.619 363.443 119.529 360.953 123.379 358.413C128.046 355.429 132.509 352.138 136.739 348.563C140.997 344.957 144.704 340.745 147.739 336.063C148.479 334.883 149.139 333.673 149.849 332.443C150.559 331.213 151.249 329.913 152.029 328.703C153.539 326.246 155.21 323.891 157.029 321.653C160.663 317.198 164.741 313.123 169.199 309.493C173.999 305.493 179.259 301.953 184.269 298.393C189.14 294.623 193.55 290.293 197.409 285.493C201.409 280.743 205.029 275.713 208.849 270.773C212.562 265.711 216.74 261.007 221.329 256.723C227.059 251.513 233.429 247.163 239.609 242.723C245.789 238.283 251.779 233.483 256.759 227.723C260.539 223.383 263.949 218.723 267.599 214.133C269.449 211.873 271.299 209.613 273.359 207.523C274.359 206.443 275.459 205.463 276.519 204.453C277.579 203.443 278.749 202.523 279.969 201.693C281.161 200.826 282.4 200.025 283.679 199.293C284.329 198.923 285.009 198.623 285.679 198.293L286.679 197.803L287.679 197.413L289.749 196.633L291.749 195.903C292.433 195.672 293.101 195.399 293.749 195.083C294.407 194.812 295.052 194.508 295.679 194.173C300.779 191.583 305.099 187.773 309.249 183.803C312.445 180.65 315.857 177.723 319.459 175.043C321.285 173.732 323.196 172.542 325.179 171.483C327.108 170.468 328.962 169.319 330.729 168.043C334.244 165.401 337.584 162.535 340.729 159.463C343.882 156.323 347.193 153.346 350.649 150.543C353.811 148.185 357.197 146.145 360.759 144.453C364.089 142.863 366.919 141.743 369.299 140.843C371.679 139.943 373.619 139.273 375.209 138.743C377.374 137.967 379.589 137.339 381.839 136.863C382.549 136.713 383.469 136.493 383.909 136.463C384.639 136.403 383.659 137.023 381.249 138.133C378.839 139.243 374.949 140.753 370.009 142.703C362.719 145.603 355.459 149.003 349.509 154.213C343.559 159.423 337.969 165.663 330.989 170.493C330.119 171.103 329.209 171.663 328.289 172.213L325.549 173.723L324.229 174.453C323.799 174.713 323.379 174.993 322.959 175.263L321.679 176.073L320.449 176.953C317.17 179.408 314.06 182.081 311.139 184.953C308.116 187.941 304.873 190.698 301.439 193.203C300.549 193.803 299.629 194.383 298.709 194.953C297.789 195.523 296.819 196.023 295.839 196.483C294.859 196.943 293.839 197.413 292.839 197.773L289.839 198.873C286.96 199.792 284.226 201.115 281.719 202.803C279.249 204.545 276.957 206.528 274.879 208.723C270.629 213.103 266.959 218.113 263.099 223.043C261.179 225.513 259.169 227.963 257.039 230.313C254.896 232.657 252.608 234.865 250.189 236.923C245.389 241.063 240.189 244.663 235.189 248.313L235.139 248.303Z" fill="#69BC69"/>
<path d="M90.1893 173.943C90.1893 174.593 89.9292 175.113 89.5992 175.113C89.2692 175.113 88.0092 174.593 88.0092 173.943C88.0092 173.293 89.2792 172.763 89.5992 172.763C89.9192 172.763 90.1893 173.293 90.1893 173.943Z" fill="#69BC69"/>
<path d="M91.1692 187.523C91.727 187.523 92.1792 187.071 92.1792 186.513C92.1792 185.955 91.727 185.503 91.1692 185.503C90.6114 185.503 90.1592 185.955 90.1592 186.513C90.1592 187.071 90.6114 187.523 91.1692 187.523Z" fill="#69BC69"/>
<path d="M52.9192 118.903C52.2137 118.319 51.6363 117.596 51.2234 116.779C50.8104 115.961 50.5707 115.067 50.5192 114.153C50.4893 113.472 50.5946 112.793 50.8292 112.153C51.256 111.118 51.9006 110.187 52.7192 109.423L53.3092 108.893C53.5406 108.697 53.792 108.526 54.0592 108.383C54.5943 108.101 55.185 107.941 55.7892 107.913C56.8092 107.891 57.8145 108.158 58.6892 108.683C59.7863 109.271 60.6608 110.202 61.1792 111.333C61.3192 111.683 60.8692 111.863 60.3192 111.873C59.7572 111.899 59.2064 111.709 58.7792 111.343C57.4992 109.933 55.7792 109.223 54.4192 110.263C53.4212 110.997 52.7132 112.059 52.4192 113.263C52.282 113.898 52.3014 114.556 52.4756 115.182C52.6498 115.807 52.9737 116.381 53.4192 116.853C53.9882 117.517 54.6642 118.082 55.4192 118.523C56.6016 119.218 57.9104 119.67 59.2692 119.853C60.2978 119.954 61.336 119.859 62.3292 119.573C62.5492 119.523 62.7392 119.423 62.9492 119.363C63.7092 119.103 63.9492 119.083 64.3592 119.453C64.4492 119.543 64.5492 119.613 64.6292 119.703C64.8892 119.993 64.6992 120.483 64.0292 120.853C61.9503 121.85 59.5717 122.025 57.3692 121.343C55.6951 120.889 54.1393 120.077 52.8092 118.963L52.9192 118.903Z" fill="#69BC69"/>
<path d="M87.0392 141.123C88.8441 140.504 90.4592 139.432 91.729 138.008C92.9988 136.584 93.8806 134.857 94.2892 132.993L94.5692 131.993C94.6428 131.636 94.6962 131.276 94.7292 130.913C94.7992 130.193 94.9792 129.493 94.9792 128.753C95.124 126.634 95.0838 124.506 94.8592 122.393C94.7192 121.333 94.6092 120.263 94.4492 119.203L93.7292 115.593L93.7892 114.723C93.9192 114.463 94.1592 114.383 94.4892 114.333C94.8518 114.299 95.2167 114.299 95.5792 114.333H96.4592C97.5463 114.432 98.6418 114.292 99.6692 113.923C100.084 113.76 100.432 113.462 100.659 113.078C100.885 112.694 100.977 112.245 100.919 111.803C100.792 111.176 100.532 110.583 100.156 110.066C99.7797 109.548 99.2966 109.117 98.7393 108.803C97.5832 108.028 96.2847 107.491 94.9192 107.223C94.1092 107.113 94.1292 106.633 95.0092 106.223C95.7351 105.982 96.506 105.908 97.2644 106.007C98.0228 106.106 98.7492 106.374 99.3892 106.793C100.713 107.537 101.783 108.663 102.459 110.023C102.825 110.802 102.964 111.669 102.859 112.523C102.768 113.457 102.338 114.325 101.649 114.963C101.014 115.514 100.251 115.896 99.4292 116.073C98.7262 116.226 98.0087 116.303 97.2892 116.303C96.8082 116.315 96.3269 116.292 95.8492 116.233H95.7192C95.7192 116.233 95.7192 116.293 95.7192 116.333V116.413C95.7172 116.45 95.7172 116.486 95.7192 116.523L95.8792 117.373L96.1792 119.093C96.8228 122.928 96.9606 126.832 96.5892 130.703L96.3492 132.303L95.9192 133.803L95.6992 134.593L95.3792 135.353C95.1492 135.853 94.9692 136.353 94.6992 136.853C93.6586 138.828 92.1083 140.489 90.2092 141.663C89.0444 142.37 87.7755 142.89 86.4492 143.203C85.1353 143.481 83.79 143.582 82.4492 143.503C80.4101 143.357 78.4291 142.759 76.6492 141.753C74.9039 140.791 73.2877 139.612 71.8392 138.243C69.5752 136.205 67.6213 133.846 66.0392 131.243C65.6892 130.673 65.3792 130.073 65.0392 129.463C64.0392 127.123 64.0892 126.183 64.4592 125.593C64.5345 125.451 64.6287 125.32 64.7392 125.203C64.9092 125.063 65.1192 125.203 65.3292 125.613C65.4572 125.856 65.5707 126.107 65.6692 126.363C65.8092 126.653 65.9592 127.003 66.1092 127.363C68.2902 132.176 71.7489 136.299 76.1092 139.283C77.6892 140.37 79.4765 141.119 81.3592 141.483C83.2363 141.785 85.1581 141.641 86.9692 141.063L87.0392 141.123Z" fill="#69BC69"/>
<path d="M109.259 82.0031C111.579 79.1431 113.259 75.7831 113.139 72.1231C113.139 71.6631 113.139 71.2031 113.139 70.7431L112.979 69.3931C112.884 68.4961 112.697 67.6114 112.419 66.7531C111.871 65.0514 110.944 63.4959 109.709 62.2031C107.831 60.316 105.484 58.963 102.909 58.2831C101.777 57.9324 100.616 57.6847 99.4393 57.5431C98.8659 57.465 98.2879 57.4249 97.7092 57.4231C97.1492 57.4231 96.5093 57.5131 95.9093 57.5531C93.4809 57.742 91.0725 58.1334 88.7092 58.7231C86.3467 59.3177 84.0438 60.1277 81.8293 61.1431C79.6213 62.1745 77.5182 63.4169 75.5493 64.8531C72.0412 67.4294 68.9976 70.5845 66.5493 74.1831C63.4681 78.7988 61.1077 83.8567 59.5493 89.1831C59.2993 90.0031 59.1093 90.3331 58.9293 90.2631C58.7493 90.1931 58.5993 89.7431 58.5593 88.9631C58.5532 86.3906 59.1095 83.8479 60.1893 81.5131C62.515 76.0731 65.8775 71.138 70.0893 66.9831C74.3479 62.8204 79.523 59.714 85.1993 57.9131C88.6402 56.8196 92.192 56.1119 95.7892 55.8031L97.1393 55.6831C97.6184 55.643 98.1001 55.643 98.5793 55.6831C99.5048 55.7452 100.426 55.8587 101.339 56.0231C103.158 56.371 104.923 56.956 106.589 57.7631C108.461 58.6341 110.125 59.8957 111.469 61.4631L111.989 62.0431L112.419 62.6931C112.714 63.114 112.984 63.5514 113.229 64.0031C113.706 64.9151 114.078 65.8778 114.339 66.8731C114.459 67.3731 114.629 67.8731 114.709 68.3631L114.919 69.8031C115.028 70.7993 115.048 71.8032 114.979 72.8031C114.922 74.8506 114.428 76.8622 113.529 78.7031C111.369 83.2231 107.699 86.7031 103.799 89.5131C97.7753 93.7295 90.9408 96.6479 83.7293 98.0831C78.2036 99.3132 72.475 99.3132 66.9493 98.0831C65.6465 97.8385 64.4138 97.3093 63.3393 96.5331C62.5354 95.8886 61.8223 95.1385 61.2193 94.3031C60.7293 93.6631 60.3793 93.1431 60.0893 92.7131C59.6669 92.1343 59.3301 91.4978 59.0893 90.8231C58.9974 90.5994 58.9238 90.3686 58.8693 90.1331C58.8693 89.8431 59.2193 89.9431 59.9193 90.453C60.9251 91.2675 61.8283 92.201 62.6093 93.233C63.3013 94.1275 64.1522 94.8868 65.1193 95.4731C65.5988 95.731 66.1051 95.9355 66.6293 96.0831L68.3993 96.5031C70.8183 96.9868 73.2829 97.2048 75.7493 97.1531C80.8208 97.0037 85.835 96.038 90.5992 94.2931C94.1798 93.0156 97.6048 91.3383 100.809 89.2931C104.013 87.3078 106.877 84.8192 109.289 81.9231L109.259 82.0031Z" fill="#69BC69"/>
<path d="M49.9192 112.493C49.3949 112.506 48.8703 112.483 48.3492 112.423C47.8398 112.416 47.333 112.348 46.8392 112.223C46.3392 112.103 45.8392 112.013 45.3492 111.853L43.9192 111.283C42.0583 110.397 40.4569 109.047 39.2692 107.363L38.6392 106.433L38.1392 105.433C37.8134 104.76 37.5555 104.057 37.3692 103.333C36.7455 100.747 37.1017 98.0218 38.3692 95.6831C38.7102 95.1166 39.0912 94.5753 39.5092 94.063C39.9562 93.618 40.4269 93.1974 40.9192 92.8031L42.4492 91.7231C42.9792 91.3931 43.5492 91.1131 44.0892 90.8031C46.0868 89.7658 48.2899 89.1852 50.5392 89.1031C53.4638 88.9929 56.3217 89.9932 58.5392 91.9031C58.8792 92.2031 58.9392 92.4631 58.7992 92.5831C58.5305 92.7182 58.2245 92.7604 57.9292 92.703C56.7654 92.5717 55.6249 92.2824 54.5392 91.843C53.3783 91.3921 52.1529 91.1289 50.9092 91.0631C49.654 91.0346 48.4021 91.2033 47.1992 91.5631C46.5878 91.7504 45.9869 91.9708 45.3992 92.2231C44.8092 92.4931 44.2492 92.8331 43.6692 93.1231C43.0892 93.4131 42.5692 93.863 42.0092 94.233C41.7524 94.412 41.5116 94.6128 41.2892 94.8331C41.042 95.0236 40.8172 95.2417 40.6192 95.483C39.6026 96.6438 38.9918 98.1042 38.8792 99.6431C38.6603 102.21 39.4278 104.764 41.0255 106.785C42.6231 108.807 44.9309 110.143 47.4792 110.523C48.0192 110.633 48.5792 110.613 49.1292 110.673C49.3884 110.703 49.6501 110.703 49.9092 110.673C50.1592 110.673 50.4392 110.593 50.7092 110.543C51.8191 110.312 52.9118 110.005 53.9792 109.623C55.6118 109.065 57.1887 108.355 58.6892 107.503C60.1693 106.706 61.4669 105.61 62.4992 104.283C62.5892 104.153 62.6892 104.023 62.7692 103.893L62.9592 103.483C63.0192 103.343 63.1092 103.203 63.1492 103.073C63.1667 102.959 63.1901 102.845 63.2192 102.733C63.181 102.19 62.9748 101.673 62.6292 101.253C61.9292 100.253 60.9292 99.3231 60.0492 98.2531C59.6364 97.799 59.2587 97.3143 58.9192 96.8031C58.4233 96.0789 58.1109 95.2449 58.0092 94.3731C57.9725 94.1627 57.9831 93.9467 58.0402 93.7409C58.0973 93.5351 58.1994 93.3445 58.3392 93.1831C58.4366 93.0641 58.5473 92.9567 58.6692 92.8631C58.8492 92.7631 59.0392 92.9431 59.1992 93.2931C59.2792 93.4631 59.3492 93.6831 59.4792 93.9331L59.6392 94.3331C59.7092 94.4731 59.7892 94.6231 59.8592 94.7831C60.3995 95.7702 61.0724 96.6786 61.8592 97.483C62.7701 98.4158 63.6061 99.4189 64.3592 100.483C64.8713 101.228 65.1243 102.12 65.0792 103.023C65.0792 103.283 64.9692 103.533 64.8992 103.783C64.8292 104.033 64.7392 104.143 64.6592 104.323C64.5065 104.676 64.3154 105.012 64.0892 105.323C63.2747 106.479 62.2584 107.478 61.0892 108.273C59.445 109.399 57.6725 110.326 55.8092 111.033C54.8892 111.393 53.9592 111.726 53.0192 112.033C52.0389 112.33 51.0354 112.544 50.0192 112.673L49.9192 112.493Z" fill="#69BC69"/>
<path d="M59.8593 90.4031C59.8593 90.4031 68.7492 62.4031 95.5392 60.2631C97.5392 60.1031 112.829 62.0731 111.429 76.2631C110.269 88.0931 82.7892 100.463 67.5992 97.3431C63.2192 96.4231 61.6993 94.2431 59.8593 90.4031Z" fill="#69BC69"/>
<path d="M57.1893 93.7431C57.1893 93.7431 50.7093 89.5831 42.1893 96.5231C36.4993 101.163 39.9793 111.053 49.4593 110.883C51.4593 110.883 60.2193 108.563 61.8693 103.393C62.6593 100.883 57.1093 97.4431 57.1893 93.7431Z" fill="#69BC69"/>
<path d="M123.609 164.403C122.281 165.732 120.793 166.891 119.179 167.853C118.323 168.349 117.405 168.728 116.449 168.983C115.944 169.108 115.429 169.189 114.909 169.223H114.119C113.83 169.197 113.542 169.15 113.259 169.083C112.302 168.809 111.389 168.398 110.549 167.863C109.729 167.383 108.989 166.863 108.249 166.323C106.779 165.263 105.379 164.143 103.989 163.043C101.199 160.833 98.4392 158.643 95.5292 156.703C92.7011 154.72 89.58 153.191 86.2792 152.173C85.1006 151.855 83.8893 151.674 82.6692 151.633C81.4545 151.622 80.2438 151.773 79.0692 152.083C76.6415 152.659 74.3174 153.607 72.1792 154.893C68.392 157.247 65.1198 160.342 62.5592 163.993C59.9468 167.682 57.6709 171.597 55.7592 175.693C53.7592 179.763 52.0192 184.023 49.7592 188.063L43.2992 200.153C39.4392 207.283 35.4992 214.443 31.2992 221.333C28.5892 225.753 25.7692 230.123 22.6192 234.333C21.0464 236.438 19.3431 238.442 17.5192 240.333C15.7033 242.298 13.5619 243.936 11.1892 245.173C10.7992 245.343 10.4592 245.483 10.1892 245.583C9.93878 245.644 9.68503 245.691 9.42922 245.723C9.02922 245.773 8.84922 245.723 8.85922 245.643C8.86922 245.563 9.04922 245.383 9.37922 245.173L9.96922 244.813L10.7092 244.283C12.172 243.183 13.531 241.951 14.7692 240.603C16.3292 238.943 18.0392 236.873 19.8692 234.603C23.0968 230.473 26.1011 226.174 28.8692 221.723C31.6592 217.273 34.3092 212.723 36.8692 208.133C39.4292 203.543 41.9792 198.903 44.4892 194.233L48.2692 187.233C49.5592 184.933 50.6592 182.573 51.7992 180.153C54.4992 174.403 57.2692 168.413 61.1892 163.023C63.1336 160.293 65.4264 157.829 68.0092 155.693C70.6338 153.559 73.6359 151.938 76.8592 150.913L78.1892 150.523L79.5492 150.223C80.4806 150.032 81.4284 149.931 82.3792 149.923C84.2613 149.916 86.1321 150.213 87.9192 150.803C91.3618 152.052 94.6132 153.775 97.5792 155.923C100.579 157.983 103.359 160.243 106.169 162.453C107.569 163.553 108.979 164.653 110.429 165.633C111.879 166.613 113.429 167.633 114.889 167.443C116.945 167.152 118.867 166.254 120.409 164.863C122.08 163.492 123.617 161.965 124.999 160.303C127.779 156.925 130.318 153.356 132.599 149.623C139.599 138.303 145.469 126.233 151.249 114.323C153.519 109.693 155.629 105.063 158.169 100.583C158.499 100.023 158.839 99.4731 159.239 98.9231C159.447 98.6257 159.685 98.3508 159.949 98.1031C160.213 97.8654 160.498 97.6512 160.799 97.4631C161.927 96.7879 163.111 96.2124 164.339 95.7431C166.737 94.8093 169.188 94.0179 171.679 93.3731C172.779 93.0831 173.869 92.8231 174.969 92.5931C175.529 92.4797 176.089 92.3797 176.649 92.2931L177.099 92.2231L177.779 92.1431C178.224 92.094 178.672 92.074 179.119 92.0831C179.728 92.0566 180.329 92.2209 180.839 92.5531C181.055 92.7041 181.202 92.9341 181.249 93.1931C181.271 93.4275 181.226 93.6633 181.119 93.8731C180.839 94.6531 179.549 95.5031 178.639 96.0531L178.289 96.2531L178.039 96.3831L177.579 96.6331C177.269 96.7831 176.979 96.9231 176.699 97.0431C176.139 97.2964 175.629 97.5064 175.169 97.6731C173.928 98.1736 172.627 98.5098 171.299 98.6731C170.892 98.7348 170.481 98.7748 170.069 98.7931C169.619 98.7931 170.169 98.3531 171.529 97.6731C172.209 97.3231 173.099 96.9231 174.149 96.4231C174.669 96.1831 175.229 95.9131 175.819 95.6131L176.719 95.1331L177.179 94.8731L177.409 94.7431L177.529 94.6631C177.682 94.5732 177.826 94.4694 177.959 94.3531C178.039 94.2631 178.229 94.1431 178.099 94.0131C177.948 93.9773 177.79 93.9773 177.639 94.0131L177.019 94.1131C174.78 94.4999 172.566 95.0209 170.389 95.6731C168.187 96.2996 166.026 97.0645 163.919 97.9631C162.94 98.3489 162.018 98.8671 161.179 99.5031C160.847 99.8621 160.552 100.254 160.299 100.673C159.999 101.143 159.709 101.673 159.419 102.133C157.159 106.193 155.129 110.533 153.029 114.833C150.929 119.133 148.849 123.483 146.679 127.833C143.469 134.243 140.139 140.623 136.479 146.833C134.649 149.943 132.729 153.013 130.649 155.993C128.593 159.027 126.267 161.868 123.699 164.483L123.609 164.403Z" fill="#69BC69"/>
<path d="M170.449 104.473C171.845 104.093 173.204 103.588 174.509 102.963L174.779 102.793L174.859 102.733C174.908 102.684 174.952 102.631 174.989 102.573C175.024 102.514 175.035 102.444 175.02 102.377C175.005 102.31 174.966 102.252 174.909 102.213C174.852 102.165 174.783 102.134 174.709 102.123H174.569H174.249C173.308 102.149 172.369 102.236 171.439 102.383C170.589 102.503 169.739 102.693 168.869 102.853C168.319 102.953 167.759 103.063 167.169 103.113C166.54 103.192 165.901 103.113 165.309 102.883C164.889 102.703 165.189 102.293 165.569 101.883C165.883 101.45 166.353 101.156 166.879 101.063C168.879 100.933 171.109 100.393 173.509 100.373C173.879 100.373 174.219 100.373 174.679 100.373C174.958 100.393 175.236 100.433 175.509 100.493C175.768 100.569 176.014 100.684 176.239 100.833C176.461 100.98 176.652 101.17 176.799 101.391C176.947 101.613 177.049 101.862 177.099 102.123C177.126 102.389 177.096 102.657 177.012 102.911C176.927 103.164 176.79 103.397 176.609 103.593C176.397 103.823 176.163 104.031 175.909 104.213C175.723 104.344 175.529 104.464 175.329 104.573C174.969 104.77 174.599 104.947 174.219 105.103C173.489 105.413 172.749 105.663 172.019 105.903L169.329 106.763L168.329 107.113L167.859 107.293L167.499 107.463C167.452 107.481 167.41 107.509 167.376 107.546C167.341 107.582 167.315 107.625 167.299 107.673V107.813L167.229 108.063C167.129 108.429 167.009 108.79 166.869 109.143C166.61 109.749 166.196 110.277 165.669 110.673C165.184 111.038 164.653 111.337 164.089 111.563C163.855 111.668 163.615 111.758 163.369 111.833C162.469 112.103 162.149 112.003 161.869 111.563C161.797 111.466 161.733 111.362 161.679 111.253C161.529 110.893 161.829 110.513 162.409 110.253C163.21 109.95 163.972 109.554 164.679 109.073C164.908 108.895 165.088 108.661 165.199 108.393C165.271 108.214 165.331 108.03 165.379 107.843L165.479 107.483L165.539 107.283C165.57 107.16 165.61 107.04 165.659 106.923C165.782 106.568 166.013 106.26 166.319 106.043C166.472 105.932 166.632 105.831 166.799 105.743L167.119 105.593C167.529 105.413 167.909 105.273 168.279 105.143L170.479 104.413L170.449 104.473Z" fill="#69BC69"/>
<path d="M134.429 172.933C137.399 168.716 139.993 164.245 142.179 159.573C142.999 157.873 143.749 156.133 144.519 154.403C147.239 148.303 149.699 142.063 152.109 135.803L155.259 127.443C156.639 123.903 157.879 120.243 160.199 117.023C160.979 116.023 161.199 116.503 161.049 117.573C160.736 119.214 160.229 120.812 159.539 122.333C157.959 125.793 156.609 129.423 155.189 133.023C153.769 136.623 152.359 140.263 150.839 143.873C149.029 148.193 147.309 152.763 145.319 157.133C143.172 161.971 140.682 166.649 137.869 171.133C136.133 173.919 134.123 176.525 131.869 178.913C130.137 180.737 128.158 182.309 125.989 183.583C123.77 184.826 121.282 185.513 118.739 185.583C114.865 185.416 111.099 184.259 107.799 182.223C107.069 181.803 106.359 181.393 105.659 180.923C103.059 179.173 102.399 178.403 102.179 177.623C102.123 177.447 102.079 177.266 102.049 177.083C102.049 176.593 103.229 177.153 105.049 178.373C107.776 180.258 110.733 181.783 113.849 182.913C115.378 183.445 116.981 183.729 118.599 183.753C118.989 183.753 119.379 183.703 119.779 183.693C120.179 183.683 120.559 183.543 120.949 183.473C121.741 183.312 122.518 183.081 123.269 182.783C125.538 181.786 127.608 180.387 129.379 178.653C130.309 177.813 131.139 176.843 131.999 175.903C132.859 174.963 133.619 173.903 134.349 172.843L134.429 172.933Z" fill="#69BC69"/>
<path d="M35.5693 237.053C38.1393 233.343 40.5692 229.553 43.0192 225.723L45.5892 221.493C48.6493 216.543 51.6792 211.573 54.5892 206.543C55.8993 204.313 57.1592 202.043 58.3792 199.783C59.9492 196.883 61.4293 193.923 63.1593 191.123C63.2547 190.958 63.3802 190.812 63.5293 190.693C63.5726 190.659 63.6246 190.638 63.6792 190.633V190.723H63.7393C63.8593 190.663 63.9192 190.803 63.9592 190.953C64.0075 191.156 64.031 191.364 64.0293 191.573C63.9393 193.083 63.5012 194.551 62.7493 195.863C59.5293 201.783 56.1593 207.613 52.5293 213.373C50.3593 216.813 48.2893 220.503 46.1093 224.043C43.7093 227.93 41.2393 231.783 38.6993 235.603C37.1293 237.943 35.5293 240.263 33.8593 242.543C32.7293 244.073 31.5693 245.593 30.3293 247.053C29.7093 247.773 29.0593 248.493 28.3293 249.173C27.9793 249.513 27.6293 249.853 27.2493 250.173C27.0593 250.333 26.8593 250.483 26.6493 250.633C26.4223 250.795 26.1851 250.942 25.9392 251.073C25.6445 251.179 25.329 251.214 25.018 251.176C24.7071 251.138 24.4095 251.027 24.1493 250.853C22.6093 250.003 21.3693 249.033 19.9593 248.283C18.6259 247.51 17.1724 246.966 15.6592 246.673C14.9976 246.573 14.3279 246.536 13.6592 246.563C12.8013 246.634 11.9493 246.764 11.1093 246.953C10.6864 247.064 10.2421 247.064 9.81925 246.953C9.65144 246.929 9.48701 246.885 9.32926 246.823C9.11926 246.713 9.21925 246.463 9.61925 246.113C10.2964 245.593 11.0829 245.234 11.9193 245.063C13.2211 244.704 14.5838 244.622 15.9193 244.823C17.2573 245.036 18.5553 245.451 19.7692 246.053C20.9453 246.638 22.0782 247.307 23.1592 248.053C23.6892 248.403 24.1593 248.753 24.6993 249.053C24.9021 249.182 25.1163 249.293 25.3393 249.383L25.4593 249.323L25.7093 249.143C25.8898 249.016 26.0633 248.879 26.2292 248.733C26.5793 248.433 26.9293 248.093 27.2292 247.733C28.7546 246.111 30.1805 244.397 31.4993 242.603C32.8493 240.793 34.1592 238.933 35.4392 237.053H35.5693Z" fill="#69BC69"/>
<path d="M128.219 348.923C124.479 349.393 117.929 354.923 115.219 356.923C114.329 354.153 113.709 305.513 114.699 293.923C106.599 286.553 89.1193 262.193 86.9193 259.923C87.1792 269.463 83.0993 312.573 79.7693 322.473C75.7693 334.353 59.4792 378.223 55.4193 378.593C50.9993 378.993 47.3393 377.593 40.4193 378.593C49.6293 356.113 62.9592 313.673 62.9592 313.673C62.9592 313.673 62.6192 269.673 62.4492 234.623C67.5992 237.623 92.7692 235.483 101.449 227.673C101.809 232.413 102.449 236.233 103.339 238.303C107.479 247.603 128.339 276.993 130.019 281.523C132.689 288.663 126.919 339.133 128.219 348.923Z" fill="#69BC69"/>
<path d="M64.0392 290.103L64.1292 312.233V313.713C64.1292 313.913 64.0192 314.163 63.9992 314.293L63.8892 314.623L63.6792 315.283L62.8392 317.923L61.1292 323.193L57.6692 333.703C52.9692 347.703 48.2092 361.703 42.7992 375.453L42.1492 377.063L42.0592 377.293L42.0092 377.403V377.463H42.2492H42.5792C43.2692 377.403 43.9592 377.353 44.6492 377.343C47.4292 377.233 50.1892 377.613 52.7792 377.743C53.4221 377.778 54.0664 377.778 54.7092 377.743H55.1792C55.2249 377.757 55.2736 377.757 55.3192 377.743C55.491 377.625 55.6457 377.483 55.7792 377.323C56.5804 376.333 57.2837 375.268 57.8792 374.143C59.1592 371.833 60.3192 369.413 61.4392 366.993C65.3492 358.393 68.8392 349.573 72.2392 340.743C73.9259 336.31 75.5759 331.87 77.1892 327.423L78.3792 324.073L78.9492 322.403L79.4292 320.743C79.7492 319.633 79.9592 318.463 80.2292 317.333L80.8792 313.853C82.4492 304.543 83.5392 295.123 84.4992 285.703C84.9692 280.983 85.3892 276.263 85.7292 271.543C85.8992 269.183 86.0492 266.823 86.1492 264.463L86.2892 259.583C86.2892 259.183 86.2892 258.683 86.3392 258.353L87.2092 259.353C87.7592 260.023 88.3092 260.643 88.8692 261.353L96.8692 271.763C99.4292 275.103 102.019 278.433 104.659 281.703C107.299 284.973 109.989 288.203 112.849 291.223C113.209 291.593 113.559 291.993 113.939 292.333L115.209 293.563L115.429 293.773C115.439 293.873 115.439 293.973 115.429 294.073V294.673L115.379 295.463C115.379 295.983 115.309 296.463 115.289 297.023C115.199 299.103 115.149 301.183 115.109 303.273C114.959 312.273 115.009 321.213 115.109 330.183L115.359 343.653L115.569 350.363L115.719 353.713L115.799 354.963C115.803 355.186 115.837 355.408 115.899 355.623L116.989 354.793L119.119 353.203C120.553 352.137 122.045 351.152 123.589 350.253C124.879 349.381 126.362 348.835 127.909 348.663C128.519 348.663 128.149 348.843 127.169 349.283C125.609 350.082 124.132 351.033 122.759 352.123C121.809 352.843 120.759 353.683 119.619 354.623L117.849 356.123L116.399 357.313C115.819 357.783 115.239 358.253 114.639 358.723C114.529 358.293 114.449 357.723 114.339 357.223C114.229 356.723 114.129 356.223 114.079 355.613C114.029 355.003 113.989 354.703 113.939 354.243L113.849 353.243C113.729 351.853 113.639 350.403 113.559 348.913C113.389 345.913 113.279 342.763 113.209 339.453C112.999 328.453 112.909 317.513 113.059 306.533C113.059 303.783 113.149 301.043 113.269 298.283C113.269 297.593 113.269 296.903 113.359 296.203L113.469 294.593L113.279 294.403L112.519 293.673C112.009 293.173 111.519 292.673 111.069 292.153C107.279 288.073 103.869 283.763 100.449 279.453C97.0292 275.143 93.7392 270.733 90.4492 266.363L88.3292 263.573L88.2192 263.423C88.2192 263.423 88.1692 263.343 88.1592 263.373V263.463L88.0792 265.463C87.9892 266.833 87.9292 268.223 87.8292 269.593C87.0592 280.593 85.9092 291.593 84.4592 302.593C84.0192 305.873 83.5592 309.163 82.9992 312.473C82.4992 315.826 81.7946 319.146 80.8892 322.413C78.7492 328.843 76.3692 335.143 73.9792 341.503C71.5892 347.863 69.0792 354.183 66.4392 360.503C65.1092 363.633 63.7492 366.763 62.2892 369.843C61.5592 371.383 60.8092 372.913 59.9892 374.423C59.5792 375.183 59.1592 375.933 58.6892 376.673C58.2192 377.449 57.6732 378.176 57.0592 378.843C56.8453 379.078 56.5956 379.277 56.3192 379.433C56.1514 379.529 55.969 379.596 55.7792 379.633C55.6255 379.672 55.4677 379.692 55.3092 379.693C54.8192 379.693 54.3092 379.743 53.8492 379.743C52.8492 379.743 51.9392 379.673 50.9992 379.603C49.1392 379.443 47.3292 379.273 45.5192 379.293C44.6092 379.293 43.7092 379.343 42.7992 379.423C42.1092 379.483 41.2692 379.603 40.5392 379.693L39.4092 379.843H39.2692C39.2692 379.843 39.2692 379.753 39.2692 379.713L39.3792 379.453L39.5892 378.913L41.0092 375.383C41.3592 374.523 41.6992 373.663 42.0092 372.793C44.6892 365.883 47.2092 358.893 49.6592 351.883C52.1092 344.873 54.4892 337.833 56.8192 330.783L60.2892 320.193L61.9892 314.883L62.2092 314.223L62.3092 313.893C62.3187 313.843 62.3187 313.793 62.3092 313.743V309.593C62.2159 291.293 62.1259 272.996 62.0392 254.703V244.703V239.703V234.103C62.0392 233.953 62.0392 233.763 62.0892 233.733C62.6592 234.023 63.2992 234.323 63.9092 234.563L64.3592 234.703L64.6692 234.783L65.2692 234.913C66.0824 235.069 66.9037 235.179 67.7292 235.243C69.3923 235.377 71.0616 235.418 72.7292 235.363C76.0818 235.264 79.4234 234.93 82.7292 234.363C86.0391 233.825 89.2997 233.019 92.4792 231.953C94.0531 231.42 95.587 230.775 97.0692 230.023C97.8044 229.656 98.5188 229.249 99.2092 228.803L99.4892 228.623L99.8492 228.343L100.579 227.793C101.069 227.423 101.529 227.013 102.009 226.623C102.129 227.893 102.239 229.163 102.359 230.433C102.459 231.363 102.579 232.293 102.719 233.213C102.931 235.026 103.406 236.798 104.129 238.473C105.799 241.784 107.634 245.008 109.629 248.133C115.279 257.193 121.269 265.913 126.979 274.803C127.699 275.913 128.389 277.043 129.079 278.183C129.836 279.334 130.457 280.569 130.929 281.863C131.226 283.198 131.4 284.557 131.449 285.923C131.519 287.263 131.549 288.593 131.549 289.923C131.549 295.223 131.299 300.493 131.039 305.783C130.769 310.433 130.499 314.973 130.229 319.663C129.099 337.023 128.819 342.513 128.389 346.233C128.289 347.083 128.239 348.233 128.189 348.703C128.109 349.573 127.669 348.213 127.519 345.033C127.369 341.853 127.459 336.873 127.789 330.503C128.276 321.616 128.773 312.616 129.279 303.503C129.489 298.963 129.679 294.393 129.669 289.833C129.707 287.597 129.579 285.361 129.289 283.143C129.121 282.131 128.739 281.166 128.169 280.313C127.629 279.313 127.009 278.363 126.419 277.383C121.489 269.593 116.219 261.873 111.159 253.963C108.639 249.963 106.159 246.033 103.799 241.843C103.209 240.843 102.699 239.723 102.159 238.563C101.711 237.384 101.376 236.165 101.159 234.923C100.729 232.773 100.399 229.103 100.499 230.153C100.399 230.213 100.909 229.903 99.4492 230.823C98.416 231.42 97.3511 231.961 96.2592 232.443C90.9272 234.626 85.3163 236.053 79.5892 236.683C76.7403 237.047 73.8713 237.231 70.9992 237.233C69.5395 237.236 68.0807 237.159 66.6292 237.003C65.8795 236.922 65.135 236.798 64.3992 236.633C64.2392 236.633 63.9692 236.523 63.8892 236.513C63.9892 254.333 64.0892 272.213 64.1792 290.063L64.0392 290.103Z" fill="#69BC69"/>
<path d="M64.6593 217.693L64.5793 222.193C64.5793 222.743 64.5793 223.293 64.5793 223.833C64.5193 225.763 64.4093 227.693 64.3093 229.623C64.3093 230.473 64.3093 231.333 64.3093 232.183C64.371 233.279 64.3174 234.378 64.1492 235.463C64.0092 236.133 62.4992 235.183 62.5492 233.943C62.6192 231.743 62.7393 229.543 62.9693 227.313C63.1093 225.983 63.0393 224.593 63.0593 223.223L63.1192 218.703V215.923C63.1192 214.523 63.1192 213.113 63.1192 211.713C63.1192 210.633 62.9393 209.573 62.8593 208.503C62.8593 208.263 62.8592 208.033 62.7992 207.793C62.7992 206.913 62.8693 206.623 63.2993 206.433C63.3914 206.383 63.4886 206.343 63.5892 206.313C63.9192 206.223 64.1892 206.583 64.2892 207.223C64.5645 209.191 64.7115 211.176 64.7292 213.163C64.7292 214.663 64.7292 216.163 64.7892 217.693H64.6593Z" fill="#69BC69"/>
<path d="M102.029 199.803L101.789 207.273V210.003C101.709 213.203 101.629 216.413 101.629 219.613C101.629 221.033 101.699 222.463 101.779 223.863C101.889 225.673 102.099 227.473 102.059 229.293C102.059 230.423 100.389 229.113 100.229 227.003C100.003 223.277 99.9758 219.542 100.149 215.813C100.259 213.573 100.149 211.243 100.219 208.953L100.419 201.403L100.569 196.763C100.639 194.423 100.739 192.063 100.769 189.763C100.769 187.953 100.719 186.183 100.679 184.393C100.679 184.003 100.679 183.613 100.679 183.223C100.679 181.753 100.779 181.293 101.219 180.973C101.307 180.894 101.404 180.827 101.509 180.773C101.839 180.623 102.109 181.223 102.199 182.313C102.439 185.523 102.399 188.893 102.329 192.313C102.269 194.823 102.199 197.313 102.129 199.853L102.029 199.803Z" fill="#69BC69"/>
<path d="M42.3692 378.803C42.1892 379.993 41.2192 386.453 45.3692 387.893C48.7392 389.043 53.2092 409.053 59.0992 408.323C66.3592 407.433 50.9992 378.803 50.9992 378.803H42.3692Z" fill="#69BC69"/>
<path d="M60.7692 397.853C61.4051 399.805 61.8472 401.815 62.0892 403.853C62.2373 404.983 62.1453 406.131 61.8193 407.223C61.5926 407.911 61.1374 408.5 60.5293 408.893C59.9224 409.237 59.2234 409.384 58.5293 409.313C57.6238 409.193 56.7743 408.807 56.0892 408.203C55.476 407.7 54.9313 407.118 54.4693 406.473C53.0227 404.323 51.806 402.027 50.8392 399.623C49.8392 397.283 48.9192 394.933 47.9092 392.623C47.4771 391.622 46.969 390.656 46.3893 389.733C46.1453 389.318 45.8305 388.949 45.4593 388.643C45.3793 388.563 45.3192 388.573 45.2592 388.523L44.8392 388.343L44.3993 388.153L43.9893 387.873C43.6474 387.638 43.3352 387.363 43.0592 387.053C42.7944 386.745 42.5631 386.41 42.3692 386.053C41.998 385.355 41.7414 384.602 41.6093 383.823C41.3289 382.339 41.3289 380.817 41.6093 379.333C41.7993 378.433 42.2493 378.653 42.6093 379.443C43.0702 380.585 43.3665 381.787 43.4893 383.013C43.5656 384.172 44.0429 385.268 44.8392 386.113C44.9332 386.194 45.0335 386.268 45.1393 386.333C45.2322 386.417 45.341 386.482 45.4593 386.523L45.8092 386.693C46.1104 386.806 46.3908 386.969 46.6393 387.173C47.3004 387.767 47.8491 388.475 48.2592 389.263C49.6004 391.921 50.7759 394.66 51.7793 397.463C52.4195 399.104 53.1472 400.71 53.9593 402.273C54.72 403.808 55.6966 405.225 56.8593 406.483C58.0693 407.773 59.8592 407.973 60.1592 406.363C60.3359 405.487 60.3562 404.586 60.2193 403.703C60.0973 402.753 59.917 401.811 59.6793 400.883C59.0826 398.551 58.3378 396.26 57.4492 394.023C56.1292 390.613 54.6392 387.223 53.0192 383.963C52.3892 382.693 51.7292 381.453 51.0192 380.233L50.7793 379.803L50.6393 379.583C50.6393 379.583 50.6393 379.503 50.5693 379.493H50.4492H50.1892L48.0793 379.563L46.2393 379.623C43.9193 379.623 43.2392 379.533 42.6892 379.033C42.5716 378.927 42.4613 378.814 42.3593 378.693C42.1393 378.303 43.0793 377.983 44.7793 377.873C46.0293 377.793 47.3092 377.723 48.5892 377.673H49.5892H50.8293C51.1393 377.673 51.4592 377.673 51.7592 377.673L52.2093 378.493L52.7992 379.583C54.0592 381.903 55.2492 384.293 56.3692 386.723C58.0689 390.326 59.5548 394.026 60.8193 397.803L60.7692 397.853Z" fill="#69BC69"/>
<path d="M116.129 356.163C116.95 357.788 118.344 359.05 120.041 359.706C121.739 360.361 123.62 360.364 125.319 359.713C131.849 357.613 143.639 354.873 146.169 350.033C148.699 345.193 123.169 351.933 123.169 351.933L116.129 356.163Z" fill="#69BC69"/>
<path d="M140.559 347.273C141.429 347.203 142.319 347.153 143.229 347.163C143.697 347.169 144.164 347.199 144.629 347.253C144.896 347.286 145.159 347.336 145.419 347.403C145.77 347.492 146.107 347.63 146.419 347.813C146.733 347.994 146.987 348.262 147.151 348.586C147.314 348.909 147.38 349.273 147.339 349.633C147.3 349.976 147.173 350.304 146.969 350.583L146.489 351.343C146.349 351.558 146.184 351.755 145.999 351.933L145.499 352.453L144.409 353.333C143.348 354.099 142.22 354.769 141.039 355.333C136.937 357.038 132.712 358.429 128.399 359.493C127.459 359.753 126.529 360.033 125.609 360.333C125.129 360.463 124.609 360.623 124.119 360.723C123.601 360.821 123.076 360.875 122.549 360.883C121.166 360.919 119.799 360.573 118.599 359.883C117.411 359.195 116.441 358.186 115.799 356.973C115.599 356.603 115.639 356.353 115.799 356.283C116.088 356.248 116.381 356.3 116.639 356.433C117.58 356.839 118.478 357.338 119.319 357.923C120.173 358.521 121.178 358.868 122.219 358.923C122.479 358.923 122.749 358.923 123.009 358.923L123.819 358.833C124.369 358.703 124.869 358.593 125.519 358.393C127.989 357.673 130.449 357.063 132.899 356.393C135.866 355.61 138.734 354.493 141.449 353.063C142.171 352.679 142.863 352.242 143.519 351.753C143.836 351.521 144.134 351.263 144.409 350.983C144.669 350.744 144.904 350.48 145.109 350.193L145.349 349.843C145.394 349.768 145.415 349.68 145.409 349.593C145.409 349.403 145.229 349.293 145.069 349.243C144.743 349.148 144.408 349.091 144.069 349.073C143.669 349.073 143.259 349.023 142.839 349.023C140.757 349.087 138.683 349.295 136.629 349.643C133.479 350.143 130.329 350.763 127.239 351.513C126.049 351.803 124.869 352.133 123.699 352.513C123.463 352.554 123.242 352.658 123.059 352.813L122.289 353.313L120.759 354.313L119.409 355.193C117.699 356.253 117.089 356.473 116.459 356.273C116.315 356.237 116.174 356.187 116.039 356.123C115.679 355.893 116.219 355.203 117.419 354.343C118.309 353.713 119.229 353.083 120.159 352.463L121.569 351.533L122.289 351.073L122.609 350.873L122.989 350.763L123.399 350.653C125.609 350.033 127.869 349.483 130.149 348.983C133.557 348.217 137.006 347.646 140.479 347.273H140.559Z" fill="#69BC69"/>
<path d="M13.3592 246.113C13.2444 246.839 12.8672 247.497 12.2992 247.963C10.6792 249.083 9.14924 250.413 7.60924 251.703C6.28924 252.813 4.92924 253.893 3.71924 255.113L3.46924 255.373C3.43704 255.405 3.41004 255.442 3.38924 255.483C3.32924 255.533 3.30924 255.703 3.38924 255.633C3.47132 255.6 3.54866 255.556 3.61924 255.503L4.29924 255.033L5.19924 254.373C5.89924 253.843 6.61924 253.323 7.30924 252.753C7.99924 252.183 8.59924 251.653 9.30924 251.093C9.40677 250.978 9.52562 250.883 9.65924 250.813C9.75841 250.794 9.86068 250.798 9.95791 250.826C10.0551 250.853 10.1447 250.902 10.2194 250.97C10.2941 251.038 10.352 251.123 10.3884 251.217C10.4249 251.311 10.4388 251.413 10.4292 251.513C10.4292 251.623 10.4292 251.773 10.4292 251.823C9.91924 252.243 9.91924 253.093 9.34924 253.503C8.34924 254.283 7.34924 255.223 6.34924 256.063C5.93844 256.403 5.50402 256.714 5.04924 256.993L4.44924 257.353L3.63924 257.803C3.18522 258.046 2.7056 258.237 2.20924 258.373C1.80807 258.515 1.37041 258.515 0.969242 258.373C0.799603 258.323 0.651699 258.217 0.549237 258.073C0.435486 257.921 0.363135 257.742 0.339237 257.553C0.314655 257.361 0.314655 257.166 0.339237 256.973C0.395642 256.741 0.469178 256.514 0.559239 256.293L0.629238 256.123L0.769238 255.903L1.06924 255.473L1.35924 255.033L1.72924 254.623L2.45924 253.823L2.98924 253.293C3.70924 252.583 4.47924 251.873 5.26924 251.203C6.68135 249.962 8.16381 248.803 9.70924 247.733C10.4423 247.184 11.2338 246.718 12.0692 246.343C12.2425 246.287 12.4196 246.243 12.5992 246.213L13.3592 246.113Z" fill="#69BC69"/>
<path d="M10.1492 251.553C9.99142 252.187 9.66686 252.767 9.20922 253.233C7.83908 254.59 6.57222 256.047 5.41922 257.593C4.91922 258.253 4.41922 258.913 3.95922 259.593C3.73922 259.933 3.50922 260.283 3.33922 260.593C3.21134 260.815 3.11698 261.054 3.05922 261.303C2.93522 261.32 2.81409 261.353 2.69922 261.403C2.64219 261.422 2.58826 261.449 2.53923 261.483L2.47922 261.543C2.47769 261.347 2.41858 261.156 2.30922 260.993C2.30922 260.913 2.45922 260.883 2.51922 260.733C2.70762 260.444 2.91826 260.17 3.14923 259.913C3.61923 259.363 4.14922 258.793 4.61922 258.243C5.08922 257.693 5.61922 257.143 6.22922 256.633C6.83922 256.123 7.40922 255.633 7.98922 255.183C8.56922 254.733 9.40922 254.183 10.1392 253.623C10.8324 253.097 11.5608 252.619 12.3192 252.193C12.4502 252.107 12.596 252.046 12.7492 252.013C12.8513 252.015 12.9514 252.041 13.0413 252.089C13.1312 252.138 13.2083 252.207 13.266 252.291C13.3237 252.375 13.3605 252.472 13.3733 252.573C13.386 252.674 13.3743 252.777 13.3392 252.873C13.3392 252.983 13.3392 253.133 13.2592 253.163C12.6892 253.463 12.6092 254.323 12.0392 254.633C11.0078 255.296 10.0373 256.049 9.13922 256.883C8.75922 257.203 8.35922 257.503 7.98922 257.773C7.48602 258.124 7.002 258.501 6.53923 258.903C6.20923 259.183 5.38922 260.043 4.26922 261.283C3.9023 261.617 3.51488 261.928 3.10923 262.213C3.00909 262.279 2.90171 262.332 2.78923 262.373C2.56053 262.46 2.30793 262.46 2.07923 262.373C1.95372 262.304 1.84458 262.208 1.75922 262.093C1.75922 262.013 1.66922 261.933 1.62922 261.853C1.59291 261.746 1.56614 261.635 1.54922 261.523C1.52485 261.327 1.52485 261.129 1.54922 260.933C1.58402 260.78 1.63083 260.629 1.68922 260.483C2.12784 259.53 2.67479 258.631 3.31923 257.803C4.39147 256.302 5.5963 254.899 6.91922 253.613C7.54356 252.98 8.23804 252.419 8.98922 251.943C9.35803 251.765 9.74775 251.634 10.1492 251.553Z" fill="#69BC69"/>
<path d="M4.15926 259.893C4.41276 260.118 4.72474 260.267 5.05926 260.323C5.25926 260.323 5.29926 260.193 5.39926 260.213C6.06823 260.065 6.71176 259.819 7.30926 259.483C7.99926 259.123 8.68926 258.713 9.38926 258.303C10.5793 257.583 11.8193 256.913 13.0293 256.163C13.8393 255.663 14.6593 255.163 15.4993 254.653L16.7993 253.933L17.5093 253.603L17.8993 253.453C18.0971 253.376 18.3012 253.316 18.5093 253.273C18.956 253.145 19.4334 253.177 19.8593 253.363C20.061 253.462 20.2399 253.602 20.3845 253.775C20.5291 253.947 20.6363 254.147 20.6993 254.363C20.7921 254.688 20.8193 255.028 20.7793 255.363C20.7749 255.532 20.7514 255.7 20.7093 255.863C20.7093 256.023 20.6593 256.103 20.6293 256.213C20.5064 256.611 20.3526 256.999 20.1693 257.373C19.8456 258.072 19.4608 258.742 19.0193 259.373C18.9619 259.486 18.8799 259.586 18.7793 259.663C18.4793 259.833 18.0593 259.563 17.9093 259.153C17.9093 259.063 17.7993 258.933 17.8293 258.883C18.1493 258.453 17.8293 257.733 18.1093 257.313C18.3555 256.914 18.5377 256.479 18.6493 256.023L18.7093 255.703C18.7093 255.593 18.7093 255.493 18.7093 255.513C18.6867 255.505 18.6618 255.505 18.6393 255.513L18.3693 255.573C18.1687 255.628 17.9717 255.695 17.7793 255.773C16.9598 256.142 16.1648 256.563 15.3993 257.033L11.3993 259.443C10.0844 260.253 8.70271 260.949 7.26926 261.523C6.71398 261.761 6.11305 261.874 5.50926 261.853C5.2709 261.832 5.03776 261.771 4.81926 261.673C4.63926 261.563 4.52926 261.473 4.49926 261.453C4.40384 261.367 4.3271 261.262 4.27378 261.145C4.22046 261.028 4.19169 260.902 4.18926 260.773C4.12748 260.484 4.11733 260.186 4.15926 259.893Z" fill="#69BC69"/>
<path d="M90.7192 166.853C89.2635 167.498 87.6341 167.639 86.0892 167.253C85.5541 167.152 85.0288 167.005 84.5193 166.813C82.8536 166.035 81.3452 164.957 80.0692 163.633C79.5092 163.063 78.9492 162.493 78.4192 161.913C77.6819 161.192 77.1059 160.323 76.7292 159.363C76.6292 159.043 77.0792 158.873 77.6192 158.873C77.8855 158.85 78.1534 158.89 78.4016 158.989C78.6498 159.088 78.8716 159.243 79.0493 159.443C80.1184 160.959 81.3379 162.363 82.6893 163.633C83.563 164.38 84.5856 164.932 85.6893 165.253C86.81 165.679 88.0325 165.759 89.1992 165.483C89.8835 165.324 90.5019 164.958 90.9692 164.433C91.5828 163.479 91.8182 162.331 91.6293 161.213C91.5057 160.265 91.3321 159.323 91.1092 158.393C91.1092 158.173 91.0193 157.963 90.9893 157.733C90.9093 156.903 91.0692 156.593 91.5692 156.453C91.6892 156.453 91.7992 156.383 91.9192 156.363C92.3092 156.363 92.5992 156.643 92.7192 157.163C93.2364 158.926 93.4925 160.756 93.4792 162.593C93.4462 163.461 93.2135 164.31 92.7993 165.073C92.3281 165.865 91.6318 166.498 90.7993 166.893L90.7192 166.853Z" fill="#69BC69"/>
<path d="M91.6492 173.413C91.774 173.883 91.7459 174.38 91.5692 174.833C91.4951 175.055 91.376 175.259 91.2192 175.433C91.0914 175.6 90.9474 175.754 90.7892 175.893C90.5821 176.091 90.3461 176.256 90.0892 176.383C89.5894 176.586 89.0351 176.611 88.5192 176.453C88.0444 176.299 87.6264 176.007 87.3192 175.613C87.0682 175.279 86.8786 174.903 86.7592 174.503C86.651 174.249 86.617 173.969 86.6613 173.697C86.7055 173.424 86.8262 173.17 87.0092 172.963C87.1292 172.843 87.5292 173.133 87.9092 173.423C88.2892 173.713 88.6892 173.943 88.6992 173.983C88.6693 174.222 88.7074 174.465 88.8092 174.683C88.9392 174.883 89.1592 174.793 89.3692 174.683C89.5792 174.573 89.8392 174.383 89.8892 174.143C89.9041 173.977 89.8539 173.812 89.7492 173.683C89.5792 173.433 89.1592 173.243 89.0392 173.313L89.1692 173.563L89.2492 173.703C89.3492 173.923 89.2492 174.013 88.7792 174.233L88.4692 174.383C88.3324 174.469 88.17 174.505 88.0096 174.485C87.8492 174.465 87.7007 174.39 87.5892 174.273C87.5292 174.173 87.4592 174.083 87.4092 173.983C87.3584 173.856 87.315 173.725 87.2792 173.593C87.1946 173.265 87.1946 172.921 87.2792 172.593C87.3825 172.36 87.5208 172.144 87.6892 171.953C87.9391 171.718 88.2451 171.552 88.5778 171.47C88.9105 171.387 89.2588 171.392 89.5892 171.483C90.0385 171.593 90.4518 171.817 90.7892 172.133C91.1598 172.459 91.439 172.876 91.5992 173.343L91.6492 173.413Z" fill="#69BC69"/>
<path d="M93.9192 187.363C93.8119 187.609 93.6741 187.841 93.5092 188.053C93.3411 188.275 93.1345 188.464 92.8992 188.613C92.4662 188.892 91.9641 189.044 91.4492 189.053C91.1147 189.079 90.7782 189.059 90.4492 188.993C89.8358 188.831 89.3025 188.45 88.9492 187.923C88.6495 187.434 88.5032 186.866 88.5292 186.293C88.5402 185.845 88.5972 185.399 88.6992 184.963C88.7361 184.665 88.8398 184.378 89.0025 184.126C89.1653 183.873 89.3829 183.66 89.6392 183.503C89.8292 183.413 90.0892 183.833 90.3192 184.253C90.5492 184.673 90.8292 185.053 90.7692 185.163C90.512 185.654 90.3556 186.191 90.3092 186.743C90.3092 187.043 90.5892 187.173 90.9792 187.223C91.1521 187.269 91.3334 187.272 91.5077 187.232C91.6819 187.192 91.8438 187.11 91.9792 186.993C92.1372 186.774 92.2245 186.513 92.2292 186.243C92.2292 185.773 92.1392 185.353 91.8192 185.243C91.4992 185.133 91.3092 185.343 91.2092 185.543C91.19 185.592 91.1666 185.639 91.1392 185.683C90.9692 185.933 90.8092 185.903 90.3692 185.683L90.0692 185.513C89.991 185.479 89.9204 185.429 89.8617 185.366C89.8031 185.304 89.7574 185.231 89.7276 185.151C89.6978 185.07 89.6843 184.985 89.688 184.9C89.6918 184.814 89.7126 184.73 89.7492 184.653C89.7985 184.523 89.8623 184.399 89.9392 184.283L90.3392 183.913C90.6198 183.653 90.9653 183.473 91.3392 183.393C91.7537 183.344 92.1736 183.411 92.5518 183.588C92.9299 183.765 93.2511 184.044 93.4792 184.393C93.7683 184.831 93.9529 185.329 94.0188 185.849C94.0847 186.369 94.0301 186.897 93.8592 187.393L93.9192 187.363Z" fill="#69BC69"/>
<path d="M151.639 356.043L151.489 356.493C151.485 356.536 151.485 356.58 151.489 356.623V356.893L151.409 357.443L151.329 357.993C151.328 358.082 151.311 358.17 151.279 358.253L150.999 358.333L149.889 358.653C149.449 358.773 149.319 358.793 149.099 358.843L148.469 358.973L147.229 359.233C146.629 359.363 146.049 359.543 145.459 359.663C143.38 360.031 141.331 360.552 139.329 361.223C138.481 361.524 137.683 361.948 136.959 362.483C136.539 362.796 136.168 363.17 135.859 363.593C135.595 363.953 135.386 364.351 135.239 364.773C135.149 365.023 134.589 365.093 134.079 364.693C133.778 364.44 133.582 364.083 133.529 363.693C133.457 363.231 133.564 362.759 133.829 362.373C134.73 361.177 135.94 360.251 137.329 359.693C138.544 359.175 139.812 358.79 141.109 358.543C142.619 358.253 144.109 357.763 145.629 357.433L148.099 356.913L148.699 356.773L148.979 356.713H149.109L149.389 356.653L149.439 356.353C149.439 356.273 149.439 356.273 149.489 356.123L149.619 355.703C149.698 355.415 149.809 355.137 149.949 354.873C150.196 354.347 150.512 353.856 150.889 353.413C152.044 352.195 153.397 351.181 154.889 350.413C155.949 349.783 156.949 349.113 157.889 348.413L158.499 347.973C159.269 347.443 159.549 347.373 160.069 347.703C160.189 347.783 160.319 347.843 160.429 347.923C160.779 348.203 160.679 348.753 160.109 349.313C158.399 350.913 156.299 351.853 154.579 353.013C153.358 353.693 152.385 354.744 151.799 356.013L151.639 356.043Z" fill="#69BC69"/>
<path d="M353.919 137.903C353.479 138.757 352.995 139.588 352.469 140.393C351.919 141.163 351.389 141.953 350.789 142.683C349.625 144.154 348.376 145.557 347.049 146.883C344.419 149.533 341.589 151.883 338.819 154.293C336.023 156.602 333.353 159.059 330.819 161.653C328.357 164.3 326.046 167.085 323.899 169.993C322.81 171.53 321.627 173 320.359 174.393C318.957 175.827 317.247 176.925 315.359 177.603C313.58 178.244 311.755 178.749 309.899 179.113C308.069 179.483 306.279 179.833 304.379 180.063C300.664 180.379 296.927 180.339 293.219 179.943C289.631 179.573 286.02 179.496 282.419 179.713C277.279 180.143 272.269 182.063 267.019 183.353C264.358 184.063 261.623 184.463 258.869 184.543C256.132 184.488 253.403 184.213 250.709 183.723C245.99 182.823 241.414 181.286 237.109 179.153C232.836 177.017 228.791 174.451 225.039 171.493C221.31 168.559 217.773 165.389 214.449 162.003C211.119 158.633 207.919 155.163 204.869 151.533C198.713 144.318 193.411 136.416 189.069 127.983C186.938 123.726 185.236 119.268 183.989 114.673C183.639 113.533 183.429 112.353 183.189 111.183C183.089 110.593 182.939 110.013 182.859 109.423L182.649 107.643C182.579 107.043 182.489 106.453 182.449 105.863L182.379 104.063L182.329 102.263V100.493C182.439 96.2931 182.759 92.1231 182.899 87.9631C182.969 85.8831 182.989 83.8031 182.899 81.7331C182.808 79.5751 183.034 77.4155 183.569 75.3231C184.659 71.1231 186.909 67.4631 188.809 63.8131C189.785 62.0169 190.621 60.148 191.309 58.2231C191.948 56.3033 192.368 54.3173 192.559 52.3031C192.849 49.7031 193.189 46.8031 194.699 44.3031C195.071 43.7036 195.482 43.1291 195.929 42.5831C196.359 42.0531 196.799 41.5831 197.249 41.0431C198.159 40.0431 199.089 39.0431 200.029 38.1131C201.912 36.2817 203.66 34.3166 205.259 32.2331C205.649 31.7131 205.999 31.1731 206.359 30.6231L207.519 28.9431C208.329 27.8531 209.149 26.7731 210.049 25.7531C211.815 23.7078 213.712 21.7803 215.729 19.9831C217.727 18.173 219.831 16.4833 222.029 14.9231C224.218 13.347 226.503 11.9076 228.869 10.6131C231.251 9.32788 233.737 8.2441 236.299 7.37305L238.409 6.78305C239.009 6.65305 239.509 6.59306 239.899 6.54306C240.669 6.44306 241.019 6.46306 240.989 6.54306C240.959 6.62305 240.549 6.85306 239.819 7.13306C239.459 7.28306 239.009 7.40305 238.499 7.62305L236.769 8.34305C233.271 9.9029 229.924 11.7808 226.769 13.9531C222.285 17.0345 218.1 20.5299 214.269 24.3931C212.416 26.2658 210.701 28.2711 209.139 30.393L208.019 32.0231C207.629 32.6231 207.219 33.2031 206.789 33.7731C205.939 34.8932 205.032 35.968 204.069 36.9931C202.169 38.9931 200.209 40.8731 198.459 42.8631C197.6 43.7666 196.857 44.7745 196.249 45.8631C195.691 46.9542 195.303 48.1244 195.099 49.3331C194.629 51.8131 194.559 54.7031 193.699 57.4831C192.863 60.1742 191.744 62.7688 190.359 65.2231C189.069 67.6531 187.719 69.9731 186.709 72.3831C185.652 74.7214 185.047 77.2393 184.929 79.8031C184.929 81.0131 184.929 82.4731 184.929 83.8031C184.929 85.1331 184.929 86.563 184.849 87.9331C184.749 90.6831 184.579 93.4031 184.439 96.1131C184.369 97.4731 184.309 98.8231 184.269 100.173L184.219 102.173L184.289 104.173C184.289 104.833 184.289 105.503 184.389 106.173L184.629 108.173C184.789 109.491 185.02 110.8 185.319 112.093C186.525 117.332 188.369 122.403 190.809 127.193C193.247 132.033 196.045 136.682 199.179 141.103C202.969 146.467 207.126 151.563 211.619 156.353C216.094 161.276 220.967 165.822 226.189 169.943C228.817 171.976 231.577 173.834 234.449 175.503C237.333 177.128 240.343 178.52 243.449 179.663C244.229 179.933 245.019 180.163 245.809 180.413L246.999 180.783L248.199 181.063C249.009 181.243 249.809 181.453 250.619 181.613L253.059 181.993C253.873 182.133 254.695 182.223 255.519 182.263C256.339 182.323 257.169 182.423 257.979 182.443C259.597 182.479 261.215 182.355 262.809 182.073C266.396 181.379 269.941 180.488 273.429 179.403C275.219 178.913 277.029 178.403 278.879 178.103C280.739 177.75 282.626 177.559 284.519 177.533C288.279 177.433 291.989 177.813 295.639 178.063C299.245 178.395 302.88 178.254 306.449 177.643C308.249 177.323 310.049 176.983 311.789 176.523C313.583 176.184 315.313 175.57 316.919 174.703C318.382 173.745 319.65 172.521 320.659 171.093L323.999 166.683C326.274 163.732 328.743 160.936 331.389 158.313C334.069 155.723 336.919 153.313 339.699 150.953C343.178 148.105 346.373 144.927 349.239 141.463C352.089 138.033 353.749 133.863 355.239 129.593C356.729 125.323 357.829 120.933 359.239 116.593C359.609 115.513 359.989 114.433 360.419 113.363C360.839 112.338 361.199 111.289 361.499 110.223C362.063 108.06 362.461 105.857 362.689 103.633C363.159 90.0931 366.379 75.9331 361.529 63.0031C359.183 56.6097 355.805 50.644 351.529 45.3431C347.364 39.9479 342.9 34.7898 338.159 29.893C334.479 26.1295 330.485 22.687 326.219 19.6031C322.029 16.5422 317.431 14.0817 312.559 12.2931C307.709 10.6031 302.489 10.3831 297.269 9.87305C294.619 9.6498 291.991 9.21847 289.409 8.58305C288.115 8.2294 286.84 7.80884 285.589 7.32305L281.919 5.86305C277.649 4.17305 273.449 2.61305 268.919 2.14305C265.408 1.77955 261.861 2.03681 258.439 2.90305C256.097 3.48959 253.811 4.2827 251.609 5.27305C249.177 6.39446 246.807 7.64628 244.509 9.02306C243.779 9.44306 242.859 10.0731 242.409 10.3231C241.959 10.5731 242.059 10.3231 242.469 9.87305C243.21 9.02661 244.031 8.25307 244.919 7.56305C248.775 4.5105 253.227 2.29967 257.989 1.07305C260.337 0.457682 262.744 0.102212 265.169 0.0130525C267.621 -0.0587958 270.072 0.166174 272.469 0.683055C277.279 1.68305 281.729 3.68306 286.159 5.38306C290.589 7.08306 295.159 7.68305 299.959 8.08305C304.759 8.48305 309.839 8.97305 314.579 10.9131C319.229 12.7967 323.626 15.2523 327.669 18.2231C331.691 21.1909 335.473 24.4711 338.979 28.0331C342.499 31.5731 345.809 35.3131 348.979 39.1531C352.26 42.9628 355.267 46.9995 357.979 51.2331C362.064 57.6448 364.705 64.8685 365.719 72.4031C366.182 76.1582 366.276 79.9496 365.999 83.7231L365.769 86.5231C365.679 87.4131 365.619 88.3231 365.559 89.2331L365.279 94.7531C365.099 98.4431 364.909 102.173 364.359 105.923C364.104 107.821 363.703 109.697 363.159 111.533C363.029 112.003 362.849 112.463 362.679 112.923C362.509 113.383 362.339 113.833 362.179 114.243C361.839 115.073 361.549 115.933 361.249 116.783C360.079 120.233 359.089 123.783 357.989 127.343C356.957 130.967 355.619 134.496 353.989 137.893L353.919 137.903Z" fill="#69BC69"/>
<path d="M205.919 72.7331C206.299 71.9531 206.689 71.1631 207.129 70.3731C207.289 70.0931 207.399 69.7731 207.589 69.5031C208.245 68.5047 209.051 67.6141 209.979 66.8631C210.389 66.5431 210.789 66.1931 211.199 65.8631C211.609 65.5331 211.729 65.4331 212.019 65.2631C212.308 65.0928 212.627 64.9807 212.959 64.9331C213.369 64.8831 213.669 66.9331 213.159 67.1731C212.207 67.7224 211.292 68.3337 210.419 69.0031C209.897 69.4913 209.472 70.0752 209.169 70.7231C208.769 71.4231 208.369 72.1531 208.019 72.9231C207.789 73.3931 207.579 73.9231 207.369 74.3631C207.059 75.0931 206.709 75.8331 206.429 76.5831C206.209 77.1731 206.069 77.793 205.879 78.3931C205.848 78.53 205.804 78.6639 205.749 78.7931C205.539 79.2731 205.339 79.3631 204.819 79.1931C204.699 79.1931 204.579 79.1231 204.459 79.0731C204.284 79.0087 204.136 78.8864 204.039 78.7263C203.943 78.5663 203.904 78.3782 203.929 78.1931C204.147 77.1131 204.483 76.0602 204.929 75.0531C205.259 74.2731 205.589 73.4831 205.929 72.6931L205.919 72.7331Z" fill="#69BC69"/>
<path d="M214.329 45.933C214.329 45.803 214.389 45.583 214.429 45.303C214.469 45.023 214.609 44.663 214.769 44.303C215.138 43.4594 215.672 42.6978 216.339 42.063C217.279 41.2064 218.336 40.4891 219.479 39.933C219.889 39.703 221.679 38.933 221.849 38.863C221.849 38.863 222.589 38.573 223.289 38.233C223.854 37.9649 224.396 37.6505 224.909 37.293C226.021 36.5527 227.068 35.7197 228.039 34.803C229.519 33.403 231.139 31.923 231.479 31.603C232.095 31.0507 232.765 30.5615 233.479 30.143C234.2 29.7053 234.948 29.3145 235.719 28.973C235.939 28.863 236.349 29.793 236.189 29.893C235.509 30.313 234.849 30.743 234.189 31.193C233.311 31.7853 232.488 32.4546 231.729 33.193C230.839 34.063 230.079 34.883 230.009 34.953C229.459 35.613 228.879 36.273 228.289 36.953C227.999 37.253 227.709 37.553 227.409 37.833C226.559 38.6518 225.627 39.3822 224.629 40.013C223.715 40.587 222.77 41.1111 221.799 41.583C220.498 42.1439 219.28 42.8808 218.179 43.773C217.678 44.2346 217.285 44.8015 217.029 45.433C217.029 45.613 216.889 45.783 216.829 45.973C216.769 46.163 216.729 46.353 216.699 46.553C216.669 46.753 216.259 47.043 215.699 47.253C215.516 47.3054 215.321 47.2988 215.141 47.2342C214.962 47.1696 214.807 47.0503 214.699 46.893C214.576 46.7659 214.48 46.6155 214.417 46.4506C214.353 46.2857 214.324 46.1097 214.329 45.933Z" fill="#69BC69"/>
<path d="M340.219 55.5731C340.152 55.3047 340.052 55.046 339.919 54.8031C339.792 54.5744 339.641 54.3598 339.469 54.1631C339.362 53.9963 339.245 53.836 339.119 53.6831C338.952 53.4252 338.765 53.1811 338.559 52.9531C338.317 52.6758 338.06 52.412 337.789 52.1631C337.482 51.8678 337.147 51.6033 336.789 51.3731C336.619 51.3131 335.839 50.6731 335.649 50.5831C335.7 50.3171 335.813 50.067 335.979 49.8531C336.22 49.8933 336.453 49.9709 336.669 50.0831C336.999 50.2331 338.149 50.8031 338.199 50.8431C338.439 50.9331 338.689 51.0331 338.929 51.1431L339.259 51.3131C339.569 51.4864 339.87 51.6767 340.159 51.8831C340.45 52.0725 340.725 52.2866 340.979 52.5231C341.324 52.9153 341.613 53.3527 341.839 53.8231C341.988 54.0899 342.109 54.3714 342.199 54.6631C342.226 54.8386 342.242 55.0156 342.249 55.1931C342.249 55.3231 341.919 55.4731 341.489 55.6031C341.071 55.7054 340.632 55.695 340.219 55.5731Z" fill="#69BC69"/>
<path d="M249.319 185.103C240.559 182.57 232.285 178.588 224.839 173.323C222.115 171.459 219.488 169.456 216.969 167.323C208.24 159.616 200.746 150.615 194.749 140.633C192.077 136.23 189.689 131.661 187.599 126.953C186.258 123.94 185.103 120.847 184.139 117.693C183.139 114.513 182.564 111.214 182.429 107.883C182.429 105.783 182.959 106.123 183.519 107.793C184.079 109.463 184.979 112.413 185.969 115.953C187.782 122.259 190.27 128.351 193.389 134.123C194.929 137.043 196.619 139.873 198.389 142.683C200.159 145.493 202.049 148.203 204.089 150.843C209.022 157.297 214.731 163.118 221.089 168.173C228.061 173.804 235.895 178.275 244.289 181.413L246.229 182.123L248.229 182.733L250.229 183.333L252.229 183.833L254.229 184.313C254.89 184.451 255.558 184.555 256.229 184.623C257.562 184.719 258.9 184.702 260.229 184.573C264.385 184.093 268.499 183.307 272.539 182.223C274.589 181.733 276.639 181.223 278.709 180.803C280.789 180.354 282.903 180.083 285.029 179.993C291.589 179.823 297.949 180.253 304.229 179.413C304.909 179.303 305.599 179.213 306.229 179.093L308.229 178.673C309.469 178.343 310.509 178.103 311.339 177.793L312.489 177.423L313.409 177.073C314.185 176.767 314.994 176.552 315.819 176.433C316.097 176.386 316.378 176.366 316.659 176.373C316.989 176.373 316.739 176.783 315.959 177.373C315.47 177.781 314.937 178.133 314.369 178.423C313.596 178.862 312.786 179.234 311.949 179.533C306.349 181.643 300.199 181.933 294.209 181.933C291.209 181.933 288.209 181.833 285.209 181.933C284.469 181.933 283.759 182.023 283.029 182.063C282.299 182.103 281.599 182.223 280.879 182.363C279.429 182.593 277.969 182.933 276.499 183.263C272.149 184.263 267.749 185.493 263.159 186.213C260.824 186.604 258.453 186.738 256.089 186.613C255.475 186.567 254.864 186.487 254.259 186.373C253.649 186.273 253.119 186.113 252.549 185.993C251.439 185.703 250.309 185.483 249.199 185.153L249.319 185.103Z" fill="#69BC69"/>
<path d="M240.799 190.293C240.799 190.614 240.672 190.922 240.445 191.149C240.218 191.376 239.91 191.503 239.589 191.503C239.268 191.503 238.961 191.376 238.734 191.149C238.507 190.922 238.379 190.614 238.379 190.293C238.379 189.972 238.507 189.664 238.734 189.437C238.961 189.211 239.268 189.083 239.589 189.083C239.91 189.083 240.218 189.211 240.445 189.437C240.672 189.664 240.799 189.972 240.799 190.293Z" fill="#D5D5D5"/>
<path d="M181.179 190.803C181.309 191.643 180.949 192.443 179.659 191.903C179.507 191.83 179.371 191.727 179.259 191.599C179.148 191.472 179.063 191.324 179.011 191.163C178.959 191.002 178.94 190.832 178.955 190.664C178.97 190.496 179.019 190.332 179.099 190.183C180.029 188.633 181.009 189.743 181.179 190.803Z" fill="#69BC69"/>
<path d="M223.509 192.673C223.509 192.861 223.434 193.042 223.301 193.175C223.168 193.308 222.988 193.383 222.799 193.383C222.656 193.385 222.515 193.344 222.396 193.266C222.276 193.188 222.182 193.075 222.126 192.943C222.07 192.811 222.055 192.666 222.083 192.525C222.11 192.385 222.179 192.255 222.28 192.154C222.381 192.053 222.511 191.984 222.651 191.956C222.792 191.929 222.937 191.944 223.069 192C223.201 192.056 223.314 192.149 223.392 192.269C223.47 192.389 223.511 192.53 223.509 192.673Z" fill="#D5D5D5"/>
<path d="M197.199 219.803C197.259 220.553 195.739 220.873 195.739 219.803C195.75 219.655 195.805 219.513 195.898 219.397C195.991 219.282 196.117 219.197 196.259 219.154C196.402 219.112 196.553 219.114 196.695 219.16C196.836 219.206 196.96 219.295 197.049 219.413C197.13 219.529 197.182 219.663 197.199 219.803Z" fill="#D5D5D5"/>
<path d="M187.919 256.803C187.969 257.563 186.449 257.873 186.449 256.803C186.47 256.623 186.557 256.457 186.692 256.336C186.828 256.216 187.003 256.149 187.184 256.149C187.366 256.149 187.541 256.216 187.676 256.336C187.812 256.457 187.898 256.623 187.919 256.803Z" fill="#D5D5D5"/>
<path d="M179.529 249.983C179.529 250.583 178.369 250.833 178.369 249.983C178.381 249.872 178.425 249.767 178.496 249.681C178.566 249.595 178.661 249.532 178.767 249.499C178.874 249.466 178.987 249.465 179.094 249.496C179.201 249.527 179.297 249.588 179.369 249.673C179.45 249.76 179.506 249.867 179.529 249.983Z" fill="#D5D5D5"/>
<path d="M237.409 198.123C237.406 198.277 237.353 198.427 237.258 198.548C237.163 198.67 237.031 198.757 236.881 198.796C236.732 198.836 236.574 198.826 236.431 198.767C236.288 198.709 236.168 198.606 236.089 198.473C235.389 197.543 237.409 196.923 237.409 198.123Z" fill="#D5D5D5"/>
<path d="M182.049 186.433C182.049 186.526 182.031 186.619 181.995 186.705C181.96 186.791 181.907 186.869 181.841 186.935C181.775 187.001 181.697 187.053 181.611 187.089C181.525 187.125 181.432 187.143 181.339 187.143C181.246 187.143 181.154 187.125 181.068 187.089C180.981 187.053 180.903 187.001 180.837 186.935C180.771 186.869 180.719 186.791 180.683 186.705C180.648 186.619 180.629 186.526 180.629 186.433C180.629 186.245 180.704 186.064 180.837 185.931C180.97 185.798 181.151 185.723 181.339 185.723C181.528 185.723 181.708 185.798 181.841 185.931C181.974 186.064 182.049 186.245 182.049 186.433Z" fill="#D5D5D5"/>
<path d="M380.379 103.593C380.049 104.363 379.319 104.853 378.509 103.723C378.418 103.58 378.356 103.421 378.328 103.254C378.3 103.086 378.306 102.915 378.347 102.751C378.387 102.586 378.46 102.431 378.562 102.296C378.664 102.161 378.792 102.047 378.939 101.963C380.539 101.143 380.789 102.603 380.379 103.593Z" fill="#D5D5D5"/>
<path d="M368.639 126.803C368.289 127.483 366.839 126.943 367.389 126.033C367.476 125.912 367.598 125.821 367.738 125.771C367.878 125.721 368.031 125.715 368.174 125.755C368.318 125.794 368.446 125.876 368.542 125.99C368.637 126.104 368.696 126.245 368.709 126.393C368.731 126.534 368.707 126.678 368.639 126.803Z" fill="#D5D5D5"/>
<path d="M388.579 99.0031C388.53 99.0854 388.465 99.157 388.387 99.2135C388.31 99.27 388.222 99.3102 388.128 99.3317C388.035 99.3532 387.938 99.3555 387.844 99.3386C387.749 99.3216 387.659 99.2857 387.579 99.233C387.463 99.1567 387.372 99.0478 387.317 98.92C387.262 98.7922 387.246 98.6511 387.27 98.5142C387.295 98.3773 387.359 98.2507 387.455 98.15C387.551 98.0493 387.675 97.979 387.81 97.9478C387.946 97.9166 388.087 97.926 388.218 97.9746C388.348 98.0233 388.461 98.1091 388.543 98.2215C388.625 98.3339 388.672 98.4679 388.678 98.6069C388.685 98.7458 388.65 98.8836 388.579 99.0031Z" fill="#D5D5D5"/>
<path d="M204.609 18.9931C205.449 18.9231 206.219 19.3531 205.609 20.5931C205.524 20.7393 205.41 20.8666 205.274 20.9675C205.139 21.0684 204.984 21.1407 204.819 21.1799C204.655 21.2192 204.484 21.2246 204.317 21.196C204.15 21.1673 203.991 21.1051 203.849 21.0131C202.359 19.9631 203.539 19.0731 204.609 18.9931Z" fill="#D5D5D5"/>
<path d="M151.919 134.963C151.19 134.994 150.46 134.954 149.739 134.843C149.478 134.829 149.217 134.799 148.959 134.753C148.07 134.53 147.213 134.194 146.409 133.753C146.056 133.573 145.696 133.403 145.329 133.243C145.109 133.133 144.859 133.033 144.639 132.913C144.411 132.778 144.219 132.589 144.079 132.363C143.919 132.083 145.469 130.793 145.819 131.033C146.509 131.463 147.199 131.883 147.939 132.403C148.413 132.656 148.934 132.806 149.469 132.843C150.056 132.958 150.652 133.019 151.249 133.023C151.621 133.028 151.993 132.998 152.359 132.933C152.918 132.859 153.461 132.697 153.969 132.453C154.347 132.227 154.685 131.94 154.969 131.603C155.035 131.538 155.095 131.468 155.149 131.393C155.399 131.153 155.559 131.203 155.979 131.563L156.259 131.803C156.416 131.911 156.526 132.073 156.568 132.258C156.611 132.443 156.583 132.638 156.489 132.803C155.938 133.657 155.107 134.293 154.139 134.603C153.433 134.857 152.697 135.019 151.949 135.083L151.919 134.963Z" fill="#69BC69"/>
<path d="M90.7993 110.333C90.6195 111.011 90.2138 111.607 89.6492 112.023C89.0574 112.407 88.3493 112.57 87.6492 112.483C87.1959 112.435 86.7571 112.296 86.3593 112.073C85.324 111.301 84.5157 110.265 84.0193 109.073L83.3293 107.653C82.9606 107.071 82.7535 106.402 82.7292 105.713C82.7292 105.483 83.2192 105.433 83.7292 105.493C84.2392 105.553 84.7292 105.693 84.8392 105.993C85.2292 107.093 85.6593 108.213 86.1393 109.283C86.423 109.862 86.8956 110.328 87.4792 110.603C87.7044 110.724 87.9653 110.76 88.2147 110.705C88.4642 110.65 88.6857 110.507 88.8392 110.303C89.0401 109.918 89.1398 109.488 89.1293 109.053C89.1467 108.272 89.0455 107.493 88.8293 106.743C88.6402 106.151 88.3958 105.579 88.0992 105.033C88.0392 104.903 87.9693 104.793 87.9193 104.663C87.7293 104.183 87.7993 103.983 88.2393 103.723C88.3358 103.661 88.436 103.604 88.5392 103.553C88.6995 103.468 88.8862 103.448 89.061 103.496C89.2358 103.544 89.3854 103.658 89.4792 103.813C90.1533 104.844 90.6124 106 90.8293 107.213C91.0555 108.254 91.0555 109.332 90.8293 110.373L90.7993 110.333Z" fill="#69BC69"/>
<path d="M95.4193 124.663C96.1193 125.523 96.1093 125.853 95.9793 126.013C95.5005 126.598 94.8812 127.052 94.1793 127.333C93.5339 127.541 92.8484 127.592 92.1793 127.483C91.0444 127.352 89.9873 126.841 89.1793 126.033C88.9498 125.801 88.736 125.554 88.5393 125.293C88.3519 125.047 88.1847 124.786 88.0393 124.513C88.0393 124.513 87.9593 124.433 87.9793 124.373C87.9993 124.313 88.4792 123.963 88.8492 123.873C88.9258 123.867 89.0027 123.867 89.0793 123.873C89.1993 124.043 89.8493 123.873 89.9493 123.973C90.1599 124.22 90.4276 124.412 90.7293 124.533C90.8273 124.6 90.9149 124.681 90.9893 124.773C91.0893 124.883 91.1493 125.063 91.2693 125.163C91.8524 125.567 92.5683 125.731 93.2693 125.623C93.7023 125.54 94.114 125.37 94.4793 125.123C94.6564 124.996 94.8266 124.859 94.9893 124.713C95.1294 124.675 95.2742 124.659 95.4193 124.663Z" fill="#69BC69"/>
<path d="M87.2193 98.6231C86.2193 99.2831 86.0493 99.3731 85.7993 99.3631C85.0906 99.2473 84.3679 99.2473 83.6593 99.3631C82.9818 99.3925 82.3103 99.5033 81.6593 99.6931C81.1004 99.8757 80.561 100.114 80.0493 100.403C79.5466 100.693 79.0713 101.027 78.6293 101.403C78.3608 101.623 78.113 101.868 77.8893 102.133C77.6911 102.396 77.5074 102.67 77.3392 102.953C77.3392 102.953 77.3392 103.063 77.2292 103.073C76.8387 103.022 76.4818 102.825 76.2292 102.523C76.1692 102.443 76.0492 102.333 76.0692 102.313C76.2192 102.063 75.7393 101.403 75.9693 101.143C76.1858 100.913 76.3738 100.658 76.5292 100.383C76.7092 100.123 76.8892 99.8631 77.0992 99.6131C77.2674 99.4209 77.4669 99.2586 77.6893 99.1331C77.9781 98.98 78.2752 98.8431 78.5793 98.7231C79.0595 98.4481 79.5535 98.1978 80.0592 97.9731C80.9193 97.585 81.8329 97.3288 82.7693 97.2131C83.6961 97.0664 84.6436 97.1175 85.5493 97.3631C86.0163 97.4868 86.4545 97.7009 86.8392 97.9931C86.9913 98.1867 87.1189 98.3983 87.2193 98.6231Z" fill="#69BC69"/>
<path d="M95.6892 396.803C96.1278 396.35 96.5014 395.839 96.7992 395.283C96.8907 395.075 96.9676 394.861 97.0292 394.643C97.3739 393.902 97.5318 393.089 97.4892 392.273C97.4892 392.123 97.4892 391.973 97.4892 391.823L97.8792 392.323C97.7548 392.252 97.6119 392.221 97.4692 392.233C97.3692 392.233 97.3592 392.313 97.3092 392.373C97.1981 392.482 97.0738 392.576 96.9392 392.653C96.8292 392.723 96.3192 392.493 95.9392 392.103C95.8239 392.024 95.7263 391.922 95.6529 391.803C95.5794 391.684 95.5317 391.551 95.5129 391.412C95.4941 391.274 95.5045 391.133 95.5434 390.999C95.5824 390.865 95.6491 390.74 95.7392 390.633C96.2042 390.209 96.8102 389.974 97.4392 389.973C97.9445 389.985 98.4377 390.13 98.8692 390.393L99.5592 390.793V391.323C99.6546 391.989 99.6241 392.668 99.4692 393.323C99.3561 394.088 99.1856 394.844 98.9592 395.583C98.8056 395.969 98.6252 396.343 98.4192 396.703C98.2032 397.048 97.9695 397.382 97.7192 397.703C97.4075 398.089 97.0736 398.456 96.7192 398.803C96.2092 399.323 95.6292 399.803 95.0792 400.233C94.5292 400.663 94.2792 401.023 93.8092 401.393C93.7019 401.484 93.5883 401.568 93.4692 401.643C93.3823 401.702 93.284 401.742 93.1808 401.761C93.0775 401.78 92.9714 401.777 92.8692 401.753C92.7692 401.714 92.6775 401.656 92.5992 401.583C92.5114 401.488 92.4524 401.37 92.4292 401.243C92.4091 401.117 92.4091 400.989 92.4292 400.863C92.4197 400.797 92.4197 400.729 92.4292 400.663C92.4531 400.534 92.4531 400.402 92.4292 400.273C92.4292 400.183 92.3492 400.133 92.3692 400.063C92.3827 400.003 92.4064 399.945 92.4392 399.893C92.9909 399.265 93.5966 398.686 94.2492 398.163C94.7392 397.751 95.1941 397.3 95.6092 396.813L95.6892 396.803Z" fill="#69BC69"/>
<path d="M178.399 83.9431C178.549 84.2731 178.709 84.6031 178.859 84.9431C178.919 85.0631 179.009 85.1531 179.069 85.2731C179.239 85.6931 179.379 86.1331 179.559 86.5431C179.646 86.7174 179.761 86.8762 179.899 87.0131C180.069 87.1931 180.319 87.3131 180.299 87.6231C180.279 87.9331 178.739 88.7431 178.529 88.4931C178.181 88.0696 177.959 87.5567 177.889 87.0131C177.802 86.7095 177.66 86.4246 177.469 86.1731L177.009 85.2431C176.919 85.0631 176.819 84.8731 176.709 84.6931C176.562 84.4182 176.38 84.1629 176.169 83.9331C175.977 83.7888 175.76 83.6804 175.529 83.6131C175.477 83.5992 175.427 83.579 175.379 83.5531C175.229 83.4631 175.269 83.3331 175.549 82.9231L175.749 82.6331C175.969 82.3231 176.239 82.1331 176.439 82.1631C176.984 82.2579 177.471 82.5587 177.799 83.0031C178.031 83.2979 178.241 83.6087 178.429 83.9331L178.399 83.9431Z" fill="#69BC69"/>
<path d="M170.699 87.4031C171.019 87.6031 171.353 87.7931 171.699 87.9731C171.829 88.0431 171.969 88.0531 172.099 88.1131C172.539 88.3631 172.989 88.6231 173.449 88.8331C173.66 88.9233 173.882 88.9838 174.109 89.0131C174.399 89.0131 174.719 89.0131 174.939 89.2831C175.159 89.5531 174.329 91.1131 174.019 91.0431C173.42 90.9113 172.86 90.6369 172.389 90.2431C172.079 90.0486 171.742 89.9004 171.389 89.8031C171.019 89.6331 170.649 89.4331 170.279 89.2331L169.599 88.8531C169.249 88.6631 168.929 88.4331 168.599 88.2431C168.278 88.1135 167.964 87.9666 167.659 87.8031C167.589 87.8031 167.499 87.7131 167.439 87.6631C167.199 87.4131 167.239 87.2031 167.659 86.9331C167.744 86.885 167.83 86.8417 167.919 86.8031C168.168 86.6717 168.434 86.5774 168.709 86.5231C169.111 86.5352 169.5 86.6637 169.829 86.8931C170.119 87.0531 170.439 87.2431 170.769 87.4031H170.699Z" fill="#69BC69"/>
<path d="M176.349 110.073C176.559 109.773 176.779 109.463 176.979 109.153C177.059 109.043 177.079 108.903 177.159 108.793C177.429 108.393 177.739 108.003 177.999 107.593C178.105 107.409 178.182 107.21 178.229 107.003C178.309 106.733 178.289 106.433 178.579 106.253C178.869 106.073 180.329 107.063 180.229 107.353C180.04 107.9 179.713 108.389 179.279 108.773C179.06 109.048 178.885 109.355 178.759 109.683C178.569 110.013 178.359 110.333 178.149 110.683L177.759 111.283C177.56 111.582 177.38 111.892 177.219 112.213C177.129 112.483 177.065 112.761 177.029 113.043C177.029 113.113 177.029 113.183 177.029 113.233C176.939 113.453 176.799 113.453 176.339 113.233L176.039 113.083C175.699 112.903 175.469 112.663 175.449 112.473C175.414 111.968 175.537 111.465 175.799 111.033C175.959 110.713 176.169 110.403 176.349 110.083V110.073Z" fill="#69BC69"/>
</svg>
