<svg width="800" height="800" viewBox="0 0 800 800" fill="none" xmlns="http://www.w3.org/2000/svg">
<g clip-path="url(#clip0_8_4)">
<path d="M724.798 780.443C724.798 791.238 716.044 799.992 705.249 799.992H654.91C654.724 799.998 654.541 800 654.355 800C654.169 800 653.985 799.998 653.8 799.992H603.502C592.707 799.992 583.953 791.238 583.953 780.443C583.953 769.648 592.707 760.894 603.502 760.894H630.18L612.127 676.813C554.347 725.504 479.941 754.417 400.003 754.417C320.063 754.417 245.653 725.502 187.875 676.811L169.82 760.894H196.5C207.297 760.894 216.049 769.648 216.049 780.443C216.049 791.238 207.297 799.992 196.5 799.992H146.2C145.833 800.004 145.461 800.004 145.09 799.992H94.7508C83.9538 799.992 75.2017 791.238 75.2017 780.443C75.2017 769.648 83.9538 760.894 94.7508 760.894H129.83L154.775 644.723C116.198 601.721 88.6339 548.299 77.006 488.506C75.8917 482.774 77.397 476.845 81.1114 472.339C84.8238 467.833 90.3562 465.223 96.1955 465.223H703.807C709.644 465.223 715.176 467.833 718.893 472.339C722.605 476.845 724.11 482.774 722.998 488.506C711.37 548.299 683.802 601.723 645.226 644.725L670.172 760.894H705.251C716.046 760.894 724.798 769.646 724.798 780.443ZM679.081 504.323H120.919C155.758 627.917 269.53 715.321 400.001 715.321C530.47 715.319 644.24 627.915 679.081 504.323ZM400.003 630.042C337.393 630.042 277.817 599.889 240.638 549.384C234.238 540.686 222 538.829 213.307 545.228C204.611 551.628 202.752 563.866 209.152 572.559C253.668 633.035 325.014 669.138 400.003 669.138C410.798 669.138 419.552 660.384 419.552 649.589C419.552 638.794 410.798 630.042 400.003 630.042Z" fill="white"/>
<path d="M137.649 335.555C137.649 366.375 144.234 396.373 157.222 424.715C161.72 434.529 173.319 438.845 183.136 434.341C192.952 429.843 197.263 418.24 192.764 408.425C185.627 392.85 180.853 376.681 178.486 360.121C243.381 372.042 291.218 364.451 327.683 336.754C358.488 313.355 380.487 275.422 394.936 220.792C405.659 180.245 412.571 130.283 416.272 65.7927C447.847 125.971 494.763 170.615 537.012 210.817L537.015 210.82L537.018 210.823C583.288 254.85 623.246 292.873 623.246 335.561C623.246 360.725 617.861 385.241 607.238 408.429C602.739 418.244 607.052 429.847 616.867 434.343C619.505 435.553 622.273 436.126 624.998 436.126C632.407 436.126 639.494 431.89 642.782 424.713C655.765 396.38 662.347 366.386 662.347 335.561C662.347 276.106 616.758 232.725 563.969 182.495L563.966 182.491C516.071 136.917 461.789 85.2655 435.53 12.8829C432.726 5.14925 425.38 0 417.153 0H398.744C388.191 0 379.543 8.37486 379.205 18.9236C373.981 181.68 350.798 270.099 304.034 305.62C272.996 329.198 227.81 332.672 161.836 316.563C156.006 315.138 149.846 316.471 145.125 320.18C140.406 323.884 137.649 329.556 137.649 335.555Z" fill="url(#paint0_linear_8_4)"/>
<path d="M229.613 301.1C226.557 301.1 223.457 300.38 220.561 298.865C210.998 293.855 207.303 282.041 212.312 272.48C230.109 238.49 234.246 183.815 238.148 110.285C238.699 99.904 247.275 91.7715 257.67 91.7715H279.293C286.158 91.7715 292.524 95.3725 296.056 101.263C303.344 113.412 313.144 125.566 325.182 137.386C332.887 144.951 333 157.33 325.437 165.032C317.871 172.738 305.493 172.848 297.79 165.286C289.542 157.191 282.127 148.884 275.608 140.453C271.585 206.617 265.884 254.452 246.947 290.616C243.455 297.284 236.652 301.1 229.613 301.1Z" fill="url(#paint1_linear_8_4)"/>
<path d="M510.551 436.124C507.382 436.124 504.169 435.352 501.193 433.723C491.72 428.547 488.236 416.669 493.413 407.195C503.129 389.417 508.057 370.683 508.057 351.513C508.057 326.191 483.286 301.81 456.521 279.23C448.27 272.269 447.22 259.935 454.183 251.684C461.145 243.432 473.482 242.386 481.73 249.345C515.712 278.008 547.157 310.225 547.157 351.513C547.157 377.308 540.62 402.353 527.721 425.947C524.171 432.443 517.468 436.124 510.551 436.124Z" fill="url(#paint2_linear_8_4)"/>
</g>
<defs>
<linearGradient id="paint0_linear_8_4" x1="399.998" y1="0" x2="399.998" y2="436.126" gradientUnits="userSpaceOnUse">
<stop stop-color="#FF391E"/>
<stop offset="1" stop-color="#FFC01E"/>
</linearGradient>
<linearGradient id="paint1_linear_8_4" x1="399.998" y1="0" x2="399.998" y2="436.126" gradientUnits="userSpaceOnUse">
<stop stop-color="#FF391E"/>
<stop offset="1" stop-color="#FFC01E"/>
</linearGradient>
<linearGradient id="paint2_linear_8_4" x1="399.998" y1="0" x2="399.998" y2="436.126" gradientUnits="userSpaceOnUse">
<stop stop-color="#FF391E"/>
<stop offset="1" stop-color="#FFC01E"/>
</linearGradient>
<clipPath id="clip0_8_4">
<rect width="800" height="800" fill="white"/>
</clipPath>
</defs>
</svg>
